<?xml version="1.0" encoding="utf-8"?>
<!-- Generator: Adobe Illustrator 22.1.0, SVG Export Plug-In . SVG Version: 6.00 Build 0)  -->
<svg version="1.1" id="Warstwa_1" xmlns="http://www.w3.org/2000/svg" xmlns:xlink="http://www.w3.org/1999/xlink" x="0px" y="0px"
	 viewBox="0 0 1762.3 577.2" style="enable-background:new 0 0 1762.3 577.2;" xml:space="preserve">
<style type="text/css">
	.st0{fill:#243651;}
	.st1{fill:#3D3D3C;}
	.st2{fill:#41868F;}
	.st3{fill:#4E3D5F;}
	.st4{fill:#DB495E;}
	.st5{fill:#262F3F;}
	.st6{font-family:'AmericanTypewriter';}
	.st7{font-size:300px;}
	.st8{letter-spacing:3;}
</style>
<title>Logo-desktop</title>
<g id="_grupa_">
	<path class="st0" d="M1083.8,164.8h115.9v-8.8h-115.9c-13.6,0-18.7-3-18.7-10.9c0-10.2,5-10.9,13.2-10.9c0.9,0,1.8,0,2.6,0h2.6
		h116.2v-8.8h-116.2c-0.8,0-1.6,0-2.4,0h-2.8c-6.6,0-24.1,0-24.1,19.7C1054.2,158.2,1064.2,164.8,1083.8,164.8L1083.8,164.8z"/>
	<rect x="1077" y="137.4" class="st1" width="115.9" height="2.9"/>
	<rect x="1077" y="143.5" class="st1" width="115.9" height="2.9"/>
	<rect x="1077" y="150" class="st1" width="115.9" height="2.9"/>
	<polygon class="st2" points="1199.7,125.5 1209.2,129.9 1199.7,134.3 	"/>
	<polygon class="st3" points="1206.5,128.7 1206.5,131.1 1209.2,129.9 	"/>
	<path class="st0" d="M1181.6,219.3h3.3c7.8,0,28.7,0,28.7-23.5c0-15.5-11.8-23.4-35.2-23.4h-138V183h138c16.2,0,22.3,3.5,22.3,12.9
		c0,12.1-5.9,13-15.8,13c-1.1,0-2.1,0-3.1,0h-3.1h-138.4v10.5h138.3C1179.6,219.3,1180.6,219.3,1181.6,219.3L1181.6,219.3z"/>
	<rect x="1048.4" y="202" class="st1" width="138" height="2.9"/>
	<rect x="1048.4" y="194.7" class="st1" width="138" height="2.9"/>
	<rect x="1048.4" y="187" class="st1" width="138" height="2.9"/>
	<polygon class="st3" points="1040.4,183 1029.1,177.8 1040.4,172.5 	"/>
	<polygon class="st4" points="1032.3,179.2 1032.3,176.3 1029.1,177.8 	"/>
	<path class="st0" d="M1223.6,227.2h-154.4h-3.2c-1.2,0-2.4,0-3.7,0c-8.7,0-32,0-32,26.2c0,17.3,13.2,26.1,39.3,26.1h154v-11.7h-154
		c-18.2,0-24.9-3.9-24.9-14.4c0-13.5,6.7-14.5,17.6-14.5c1.2,0,2.3,0,3.4,0h157.8L1223.6,227.2z"/>
	<rect x="1060.6" y="243.4" class="st1" width="154" height="2.9"/>
	<rect x="1060.6" y="251.6" class="st1" width="154" height="2.9"/>
	<rect x="1060.6" y="260.1" class="st1" width="154" height="2.9"/>
	<polygon class="st0" points="1223.6,227.2 1236.1,233 1223.6,238.9 	"/>
	<polygon class="st2" points="1232.6,231.4 1232.6,234.6 1236.1,233 	"/>
</g>
<text transform="matrix(1 0 0 1 10.99 442.49)" class="st5 st6 st7">Lea</text>
<text transform="matrix(1 0 0 1 529.69 442.49)" class="st5 st6 st7 st8">r</text>
<text transform="matrix(1 0 0 1 681.18 442.49)" class="st5 st6 st7">nby</text>
</svg>
