<svg xmlns="http://www.w3.org/2000/svg" xmlns:xlink="http://www.w3.org/1999/xlink" viewBox="0 0 848.55 493.51"><defs><style>.cls-1{isolation:isolate;}.cls-2,.cls-3,.cls-37,.cls-38,.cls-39,.cls-4,.cls-40,.cls-41,.cls-42,.cls-43,.cls-5,.cls-6,.cls-7{opacity:0.83;}.cls-2{fill:url(#ŃŚÁŻž_ŪŪŻť_ūŗšŤŚŪÚ_41);}.cls-3{fill:url(#ŃŚÁŻž_ŪŪŻť_ūŗšŤŚŪÚ_41-2);}.cls-4{fill:url(#ŃŚÁŻž_ŪŪŻť_ūŗšŤŚŪÚ_41-3);}.cls-5{fill:url(#ŃŚÁŻž_ŪŪŻť_ūŗšŤŚŪÚ_41-4);}.cls-6{fill:url(#ŃŚÁŻž_ŪŪŻť_ūŗšŤŚŪÚ_41-5);}.cls-7{fill:url(#ŃŚÁŻž_ŪŪŻť_ūŗšŤŚŪÚ_41-6);}.cls-8{fill:#c8cfed;}.cls-9{fill:url(#ŃŚÁŻž_ŪŪŻť_ūŗšŤŚŪÚ_132);}.cls-10{fill:url(#ŃŚÁŻž_ŪŪŻť_ūŗšŤŚŪÚ_132-2);}.cls-11{fill:#fff;}.cls-12{fill:url(#ŃŚÁŻž_ŪŪŻť_ūŗšŤŚŪÚ_76);}.cls-13{fill:url(#ŃŚÁŻž_ŪŪŻť_ūŗšŤŚŪÚ_132-3);}.cls-14{fill:url(#ŃŚÁŻž_ŪŪŻť_ūŗšŤŚŪÚ_132-4);}.cls-15{fill:url(#ŃŚÁŻž_ŪŪŻť_ūŗšŤŚŪÚ_76-2);}.cls-16{fill:url(#ŃŚÁŻž_ŪŪŻť_ūŗšŤŚŪÚ_4);}.cls-17{fill:url(#ŃŚÁŻž_ŪŪŻť_ūŗšŤŚŪÚ_4-2);}.cls-18{fill:url(#ŃŚÁŻž_ŪŪŻť_ūŗšŤŚŪÚ_4-3);}.cls-19{fill:#fcbd8a;}.cls-20{fill:#dd9a76;}.cls-21{fill:url(#ŃŚÁŻž_ŪŪŻť_ūŗšŤŚŪÚ_98);}.cls-22{fill:#48a398;}.cls-23{fill:#f3ba8c;}.cls-24{fill:#9aabc8;}.cls-25{fill:#323266;}.cls-26{fill:url(#ŃŚÁŻž_ŪŪŻť_ūŗšŤŚŪÚ_98-2);}.cls-27{fill:#4db6ac;}.cls-28{opacity:0.21;fill:url(#ŃŚÁŻž_ŪŪŻť_ūŗšŤŚŪÚ_5);}.cls-28,.cls-31,.cls-32,.cls-33,.cls-34{mix-blend-mode:multiply;}.cls-29{fill:#ce8045;}.cls-30{fill:#57a895;}.cls-31,.cls-32,.cls-33{opacity:0.27;}.cls-31{fill:url(#ŃŚÁŻž_ŪŪŻť_ūŗšŤŚŪÚ_33);}.cls-32{fill:url(#ŃŚÁŻž_ŪŪŻť_ūŗšŤŚŪÚ_33-2);}.cls-33{fill:url(#ŃŚÁŻž_ŪŪŻť_ūŗšŤŚŪÚ_33-3);}.cls-34{opacity:0.35;fill:url(#ŃŚÁŻž_ŪŪŻť_ūŗšŤŚŪÚ_76-3);}.cls-35{fill:#61baa4;}.cls-36{fill:#6b61df;}.cls-37{fill:url(#ŃŚÁŻž_ŪŪŻť_ūŗšŤŚŪÚ_41-7);}.cls-38{fill:url(#ŃŚÁŻž_ŪŪŻť_ūŗšŤŚŪÚ_41-8);}.cls-39{fill:url(#ŃŚÁŻž_ŪŪŻť_ūŗšŤŚŪÚ_41-9);}.cls-40{fill:url(#ŃŚÁŻž_ŪŪŻť_ūŗšŤŚŪÚ_41-10);}.cls-41{fill:url(#ŃŚÁŻž_ŪŪŻť_ūŗšŤŚŪÚ_41-11);}.cls-42{fill:url(#ŃŚÁŻž_ŪŪŻť_ūŗšŤŚŪÚ_41-12);}.cls-43{fill:url(#ŃŚÁŻž_ŪŪŻť_ūŗšŤŚŪÚ_41-13);}</style><linearGradient id="ŃŚÁŻž_ŪŪŻť_ūŗšŤŚŪÚ_41" x1="-5632.83" y1="651.4" x2="-5590.68" y2="651.4" gradientTransform="matrix(-1, 0, 0, 1, -4984.77, 0)" gradientUnits="userSpaceOnUse"><stop offset="0" stop-color="#f6a472"/><stop offset="1" stop-color="#fbd453"/></linearGradient><linearGradient id="ŃŚÁŻž_ŪŪŻť_ūŗšŤŚŪÚ_41-2" x1="-5777.68" y1="385.05" x2="-5756.6" y2="385.05" xlink:href="#ŃŚÁŻž_ŪŪŻť_ūŗšŤŚŪÚ_41"/><linearGradient id="ŃŚÁŻž_ŪŪŻť_ūŗšŤŚŪÚ_41-3" x1="-6439.22" y1="750.62" x2="-6409.95" y2="750.62" xlink:href="#ŃŚÁŻž_ŪŪŻť_ūŗšŤŚŪÚ_41"/><linearGradient id="ŃŚÁŻž_ŪŪŻť_ūŗšŤŚŪÚ_41-4" x1="-3773.95" y1="938.87" x2="-3745.84" y2="938.87" gradientTransform="matrix(-0.86, 0.52, 0.52, 0.86, -2961.88, 1223.13)" xlink:href="#ŃŚÁŻž_ŪŪŻť_ūŗšŤŚŪÚ_41"/><linearGradient id="ŃŚÁŻž_ŪŪŻť_ūŗšŤŚŪÚ_41-5" x1="912.62" y1="-3163.62" x2="940.73" y2="-3163.62" gradientTransform="matrix(0.28, 0.96, 0.96, -0.28, 2822.49, -1596.16)" xlink:href="#ŃŚÁŻž_ŪŪŻť_ūŗšŤŚŪÚ_41"/><linearGradient id="ŃŚÁŻž_ŪŪŻť_ūŗšŤŚŪÚ_41-6" x1="-2165.07" y1="975.32" x2="-2151.16" y2="975.32" gradientTransform="matrix(-0.67, 0.75, 0.75, 0.67, -1553.88, 1179.57)" xlink:href="#ŃŚÁŻž_ŪŪŻť_ūŗšŤŚŪÚ_41"/><linearGradient id="ŃŚÁŻž_ŪŪŻť_ūŗšŤŚŪÚ_132" x1="-6233.24" y1="816.75" x2="-5786.46" y2="816.75" gradientTransform="matrix(1, 0, 0, -1, 6908.39, 1633.51)" gradientUnits="userSpaceOnUse"><stop offset="0" stop-color="#1e396f"/><stop offset="0.33" stop-color="#224386"/><stop offset="1" stop-color="#2b57b7"/></linearGradient><linearGradient id="ŃŚÁŻž_ŪŪŻť_ūŗšŤŚŪÚ_132-2" x1="-6233.24" y1="758.47" x2="-5786.46" y2="758.47" gradientTransform="matrix(1, 0, 0, -1, 6908.39, 1516.95)" xlink:href="#ŃŚÁŻž_ŪŪŻť_ūŗšŤŚŪÚ_132"/><linearGradient id="ŃŚÁŻž_ŪŪŻť_ūŗšŤŚŪÚ_76" x1="-6228.02" y1="787.66" x2="-6051.33" y2="787.66" gradientTransform="matrix(-1, 0, 0, 1, -4984.77, 0)" gradientUnits="userSpaceOnUse"><stop offset="0" stop-color="#2977e5"/><stop offset="1" stop-color="#46a1f8"/></linearGradient><linearGradient id="ŃŚÁŻž_ŪŪŻť_ūŗšŤŚŪÚ_132-3" x1="-6251.84" y1="699.42" x2="-5847.3" y2="699.42" gradientTransform="matrix(1, 0, 0, -1, 6999.8, 1398.84)" xlink:href="#ŃŚÁŻž_ŪŪŻť_ūŗšŤŚŪÚ_132"/><linearGradient id="ŃŚÁŻž_ŪŪŻť_ūŗšŤŚŪÚ_132-4" x1="-6251.84" y1="639.61" x2="-5847.3" y2="639.61" gradientTransform="matrix(1, 0, 0, -1, 6999.8, 1279.22)" xlink:href="#ŃŚÁŻž_ŪŪŻť_ūŗšŤŚŪÚ_132"/><linearGradient id="ŃŚÁŻž_ŪŪŻť_ūŗšŤŚŪÚ_76-2" x1="-6177.96" y1="669.57" x2="-6085.17" y2="669.57" xlink:href="#ŃŚÁŻž_ŪŪŻť_ūŗšŤŚŪÚ_76"/><linearGradient id="ŃŚÁŻž_ŪŪŻť_ūŗšŤŚŪÚ_4" x1="-6048.88" y1="751.73" x2="-5694.42" y2="751.73" gradientTransform="matrix(1, 0, 0, -1, 7013.51, 1503.46)" gradientUnits="userSpaceOnUse"><stop offset="0" stop-color="#ffb902"/><stop offset="1" stop-color="#ffd976"/></linearGradient><linearGradient id="ŃŚÁŻž_ŪŪŻť_ūŗšŤŚŪÚ_4-2" x1="-6043.21" y1="706.48" x2="-5688.75" y2="706.48" gradientTransform="matrix(1, 0, 0, -1, 7013.51, 1412.97)" xlink:href="#ŃŚÁŻž_ŪŪŻť_ūŗšŤŚŪÚ_4"/><linearGradient id="ŃŚÁŻž_ŪŪŻť_ūŗšŤŚŪÚ_4-3" x1="-6265.9" y1="729.14" x2="-6131.05" y2="729.14" gradientTransform="matrix(-1, 0, 0, 1, -4984.77, 0)" xlink:href="#ŃŚÁŻž_ŪŪŻť_ūŗšŤŚŪÚ_4"/><linearGradient id="ŃŚÁŻž_ŪŪŻť_ūŗšŤŚŪÚ_98" x1="-361.36" y1="708.45" x2="-261.05" y2="708.45" gradientTransform="matrix(1, 0.06, -0.06, 1, 1122.32, 122.78)" gradientUnits="userSpaceOnUse"><stop offset="0" stop-color="#1e396f"/><stop offset="1" stop-color="#2b57b7"/></linearGradient><linearGradient id="ŃŚÁŻž_ŪŪŻť_ūŗšŤŚŪÚ_98-2" x1="-580.68" y1="819.32" x2="-480.37" y2="819.32" gradientTransform="translate(1382.3)" xlink:href="#ŃŚÁŻž_ŪŪŻť_ūŗšŤŚŪÚ_98"/><linearGradient id="ŃŚÁŻž_ŪŪŻť_ūŗšŤŚŪÚ_5" x1="-1666.96" y1="687.23" x2="-1640.36" y2="605.82" gradientTransform="translate(2380.1 -623.84) rotate(-13.62)" gradientUnits="userSpaceOnUse"><stop offset="0" stop-color="#fab190"/><stop offset="1" stop-color="#fdd7c7"/></linearGradient><linearGradient id="ŃŚÁŻž_ŪŪŻť_ūŗšŤŚŪÚ_33" x1="706.01" y1="220.1" x2="763.79" y2="220.1" gradientUnits="userSpaceOnUse"><stop offset="0" stop-color="#fb7b62"/><stop offset="1" stop-color="#e36a4f"/></linearGradient><linearGradient id="ŃŚÁŻž_ŪŪŻť_ūŗšŤŚŪÚ_33-2" x1="706.01" y1="409.93" x2="763.79" y2="409.93" xlink:href="#ŃŚÁŻž_ŪŪŻť_ūŗšŤŚŪÚ_33"/><linearGradient id="ŃŚÁŻž_ŪŪŻť_ūŗšŤŚŪÚ_33-3" x1="706.01" y1="434.4" x2="763.79" y2="434.4" xlink:href="#ŃŚÁŻž_ŪŪŻť_ūŗšŤŚŪÚ_33"/><linearGradient id="ŃŚÁŻž_ŪŪŻť_ūŗšŤŚŪÚ_76-3" x1="-3763.7" y1="651.9" x2="-3694.92" y2="651.9" gradientTransform="translate(4411.01 -330.83)" xlink:href="#ŃŚÁŻž_ŪŪŻť_ūŗšŤŚŪÚ_76"/><linearGradient id="ŃŚÁŻž_ŪŪŻť_ūŗšŤŚŪÚ_41-7" x1="-7657.94" y1="-758.52" x2="-7640.47" y2="-758.52" gradientTransform="matrix(1, 0, 0, -1, 8462.43, -274.78)" xlink:href="#ŃŚÁŻž_ŪŪŻť_ūŗšŤŚŪÚ_41"/><linearGradient id="ŃŚÁŻž_ŪŪŻť_ūŗšŤŚŪÚ_41-8" x1="-4665.19" y1="1110.5" x2="-4647.72" y2="1110.5" gradientTransform="matrix(1, 0, 0, -1, 6060.03, 1724.79)" xlink:href="#ŃŚÁŻž_ŪŪŻť_ūŗšŤŚŪÚ_41"/><linearGradient id="ŃŚÁŻž_ŪŪŻť_ūŗšŤŚŪÚ_41-9" x1="-5407.23" y1="3705.9" x2="-5389.75" y2="3705.9" gradientTransform="matrix(1.8, 0, 0, -0.53, 10439.67, 2618.2)" xlink:href="#ŃŚÁŻž_ŪŪŻť_ūŗšŤŚŪÚ_41"/><linearGradient id="ŃŚÁŻž_ŪŪŻť_ūŗšŤŚŪÚ_41-10" x1="-865.36" y1="-8556.36" x2="-847.88" y2="-8556.36" gradientTransform="matrix(2.06, 0, 0, -0.53, 2995.54, -4119.29)" xlink:href="#ŃŚÁŻž_ŪŪŻť_ūŗšŤŚŪÚ_41"/><linearGradient id="ŃŚÁŻž_ŪŪŻť_ūŗšŤŚŪÚ_41-11" x1="-5682.53" y1="406.13" x2="-5669.39" y2="406.13" gradientTransform="matrix(-1, 0, 0, 1, -5590.68, -330.83)" xlink:href="#ŃŚÁŻž_ŪŪŻť_ūŗšŤŚŪÚ_41"/><linearGradient id="ŃŚÁŻž_ŪŪŻť_ūŗšŤŚŪÚ_41-12" x1="-6055.33" y1="340.5" x2="-6044.14" y2="340.5" xlink:href="#ŃŚÁŻž_ŪŪŻť_ūŗšŤŚŪÚ_41"/><linearGradient id="ŃŚÁŻž_ŪŪŻť_ūŗšŤŚŪÚ_41-13" x1="-5663.83" y1="740.75" x2="-5652.64" y2="740.75" gradientTransform="matrix(-1, 0, 0, 1, -5590.68, -330.83)" xlink:href="#ŃŚÁŻž_ŪŪŻť_ūŗšŤŚŪÚ_41"/></defs><title>AdobeStock_266178574 [Przekonwertowany]</title><g class="cls-1"><g id="_ŽÓť_1" data-name="—ŽÓť_1"><path class="cls-2" d="M605.91,651.4A21.08,21.08,0,1,1,627,672.48,21.1,21.1,0,0,1,605.91,651.4Zm10,0A11.09,11.09,0,1,0,627,640.32,11.1,11.1,0,0,0,615.9,651.4Z" transform="translate(-605.91 -330.83)"/><path class="cls-3" d="M771.83,385.05a10.54,10.54,0,1,1,10.54,10.54A10.55,10.55,0,0,1,771.83,385.05Zm5,0a5.54,5.54,0,1,0,5.54-5.54A5.55,5.55,0,0,0,776.83,385.05Z" transform="translate(-605.91 -330.83)"/><path class="cls-4" d="M1425.18,750.62a14.64,14.64,0,1,1,14.64,14.64A14.65,14.65,0,0,1,1425.18,750.62Zm6.94,0a7.7,7.7,0,1,0,7.7-7.69A7.7,7.7,0,0,0,1432.12,750.62Z" transform="translate(-605.91 -330.83)"/><polygon class="cls-5" points="751.26 71.11 722.11 77.22 741.97 99.41 751.26 71.11"/><polygon class="cls-6" points="30.08 157.24 28.39 186.99 54.99 173.58 30.08 157.24"/><polygon class="cls-7" points="613.08 210.75 600.18 217.89 612.81 225.49 613.08 210.75"/><path class="cls-8" d="M849.55,762.23h260.76V813.1H849.55a45,45,0,0,0,0-50.87Z" transform="translate(-605.91 -330.83)"/><path class="cls-9" d="M840.76,812.9H1079.1a3.75,3.75,0,0,1,3.75,3.75v.19a3.75,3.75,0,0,1-3.75,3.75H840.76a0,0,0,0,1,0,0v-7.7A0,0,0,0,1,840.76,812.9Z" transform="translate(1317.71 1302.68) rotate(-180)"/><path class="cls-10" d="M840.76,754.72h238.39a3.71,3.71,0,0,1,3.71,3.71v.09a3.71,3.71,0,0,1-3.71,3.71H840.76a0,0,0,0,1,0,0v-7.51A0,0,0,0,1,840.76,754.72Z" transform="translate(1317.71 1186.12) rotate(180)"/><path class="cls-11" d="M1214,813.1H1082.86a45,45,0,0,0,0-50.87H1214a25.44,25.44,0,0,1,0,50.87Z" transform="translate(-605.91 -330.83)"/><path class="cls-12" d="M1070.41,820.61h139.9a32.95,32.95,0,0,0,0-65.89h-139.9a3.85,3.85,0,1,0,0,7.69h139.9a25.25,25.25,0,0,1,0,50.5h-139.9a3.85,3.85,0,0,0,0,7.7Z" transform="translate(-605.91 -330.83)"/><path class="cls-8" d="M906.93,643.46h238.36v52.21H906.93a46.16,46.16,0,0,0,0-52.21Z" transform="translate(-605.91 -330.83)"/><path class="cls-13" d="M897.91,695.47h215.35a3.85,3.85,0,0,1,3.85,3.85v.2a3.85,3.85,0,0,1-3.85,3.85H897.91a0,0,0,0,1,0,0v-7.9A0,0,0,0,1,897.91,695.47Z" transform="translate(1409.12 1068.01) rotate(180)"/><path class="cls-14" d="M897.91,635.76h215.4a3.8,3.8,0,0,1,3.8,3.8v.1a3.8,3.8,0,0,1-3.8,3.8H897.91a0,0,0,0,1,0,0v-7.7A0,0,0,0,1,897.91,635.76Z" transform="translate(1409.12 948.4) rotate(-180)"/><path class="cls-11" d="M1163.14,695.67h-46a46.16,46.16,0,0,0,0-52.21h46a26.11,26.11,0,0,1,0,52.21Z" transform="translate(-605.91 -330.83)"/><path class="cls-15" d="M1104.35,703.37h55a33.81,33.81,0,0,0,0-67.61h-55a3.95,3.95,0,1,0,0,7.89h55a25.92,25.92,0,0,1,0,51.83h-55a3.95,3.95,0,1,0,0,7.89Z" transform="translate(-605.91 -330.83)"/><path class="cls-8" d="M925.15,709.4h206.57v39.49H925.15a34.86,34.86,0,0,0,0-39.49Z" transform="translate(-605.91 -330.83)"/><path class="cls-16" d="M918.33,748.74h189.16a2.92,2.92,0,0,1,2.92,2.92v.15a2.92,2.92,0,0,1-2.92,2.92H918.33a0,0,0,0,1,0,0v-6A0,0,0,0,1,918.33,748.74Z" transform="translate(1422.83 1172.63) rotate(180)"/><path class="cls-17" d="M918.33,703.57h189.2a2.88,2.88,0,0,1,2.88,2.88v.07a2.88,2.88,0,0,1-2.88,2.88H918.33a0,0,0,0,1,0,0v-5.83a0,0,0,0,1,0,0Z" transform="translate(1422.83 1082.14) rotate(-180)"/><path class="cls-11" d="M1206.93,748.89h-96.52a34.91,34.91,0,0,0,0-39.49h96.52a19.75,19.75,0,1,1,0,39.49Z" transform="translate(-605.91 -330.83)"/><path class="cls-18" d="M1100.74,754.72h103.35a25.58,25.58,0,0,0,0-51.15H1100.74a3,3,0,0,0,0,6h103.35a19.61,19.61,0,0,1,0,39.21H1100.74a3,3,0,0,0,0,6Z" transform="translate(-605.91 -330.83)"/><path class="cls-19" d="M822.23,767.83l-8.69,27.29s-10.68,7.85-20,4.76-31.17-12.39-31.17-12.39,22.29-4.07,33.5-30.77Z" transform="translate(-605.91 -330.83)"/><path class="cls-20" d="M786,775.63c-2-3.55-6-.26-13.08,4s-10.6,6.32-21.84,9.34-31.33,6.23-31.4,14.44l99.94,8.93a138.82,138.82,0,0,0,1.55-17c.21-8.92-.68-15.19-2.14-15.38s-3.82,11.86-8.83,13.79c-5.93,2.3-24.68,2.32-25.75-4.38S788.76,780.53,786,775.63Z" transform="translate(-605.91 -330.83)"/><path class="cls-21" d="M819.57,812.29l-.61,5.15a2,2,0,0,1-2.2,1.79l-96.12-8.08a1.52,1.52,0,0,1-1.39-1.61l.38-6.18Z" transform="translate(-605.91 -330.83)"/><path class="cls-22" d="M869.37,589.41s-19.93,2-25.82,11.37-25.76,80.9-32.69,98.18-19.28,57-19.28,57,9.92,5.51,15.23,8.35S823.66,769,823.66,769s23.53-38.76,29.77-54S869.37,589.41,869.37,589.41Z" transform="translate(-605.91 -330.83)"/><path class="cls-20" d="M944.81,436.28c-15.94-2.72-23,19.15-24.41,48.87s-16.32,63.75-16.32,63.75-23.47,10.45-33.89,13.41-21.05,6-21.05,6l3.55,23.8s18.58-4.44,33.08-7.61,48.57-10,51.68-12.69S954.15,542.07,960,507,961.8,439.17,944.81,436.28Z" transform="translate(-605.91 -330.83)"/><path class="cls-19" d="M862,375s.22,11.63,2.53,16.69,5.32,8.13,5.69,12.79.09,15.33,1.25,17c1.49,2.07,7.27-.91,8.25.59s-.69,4.72.53,6.21,5.92,1.21,6.3,2.09-1.27,4.15.71,5.84c.74.62,2.23-.21,3.49,1,1.89,1.81,2.06,5.61,6.56,5.44s8.29-7.09,16.78-6.66,27.45,12.17,27.45,12.17,15.71-7.27,19.28-21.11-2-23.53-2-23.53l-12.53-7-20.46-34Z" transform="translate(-605.91 -330.83)"/><path class="cls-23" d="M960.6,404.9s-2.94,17.65-11.21,26.06a39.12,39.12,0,0,1-19.11,10.29,141.31,141.31,0,0,0-12.13,54.05c-.56,32,18.06,84.53,18.06,84.53l100.72-7.15s7.37-34.62-8.62-96C1012.67,416.57,960.6,404.9,960.6,404.9Z" transform="translate(-605.91 -330.83)"/><path class="cls-24" d="M779.69,566.78h85.07A5.23,5.23,0,0,1,870,572v2.35a0,0,0,0,1,0,0H774.46a0,0,0,0,1,0,0V572A5.23,5.23,0,0,1,779.69,566.78Z" transform="translate(1078.12 748.55) rotate(175.8)"/><path class="cls-24" d="M697.25,516.18h110a0,0,0,0,1,0,0v2a5.56,5.56,0,0,1-5.56,5.56H702.82a5.56,5.56,0,0,1-5.56-5.56v-2A0,0,0,0,1,697.25,516.18Z" transform="translate(378.85 -695.28) rotate(70.08)"/><path class="cls-19" d="M853.78,572.67a124.89,124.89,0,0,1-19.62-2.79c-10.52-2.38-19.35-2.38-23.27-3.08s-14.3-3.09-15.57,0,7.71,8.83,7.71,8.83-7.85,6.17-9.11,7.71-1.82,5.61,1.26,9.11S805.7,603,821.26,603c12.62,0,18.5-3.43,24.81-6.65a92.29,92.29,0,0,1,13.6-5.4Z" transform="translate(-605.91 -330.83)"/><path class="cls-25" d="M923,394.77l-5.69,3s-6.72-13.1-8.34-14-8.51,1.47-12-2.33-4.18-10.79-14-8.42S863.35,388.5,852.39,376c-10.71-12.2,12.07-33,28.44-39.45,15.12-5.94,37-11.5,50.91,6.49s12.85,43.22,16.15,47.9,3,6.44,1.19,8.91-14-5.94-14-5.94-.34-21.2-13.41-15.76C913.82,381.42,923,394.77,923,394.77Z" transform="translate(-605.91 -330.83)"/><path class="cls-19" d="M898.53,773.12l2,30.35s-15.88,5.46-25.34,2.94-31.86-10.52-31.86-10.52,20.4-4.1,23.45-18.92Z" transform="translate(-605.91 -330.83)"/><path class="cls-20" d="M866.19,782.65c-2.24-3.42-6,.1-12.83,4.73s-10.2,6.94-21.24,10.62-30.91,8.09-30.49,16.29l100.31,3a138.92,138.92,0,0,0,.52-17c-.31-8.92-1.58-15.12-3.05-15.23s-3.11,12.07-8,14.3c-5.78,2.64-24.5,3.78-26-2.84S869.28,787.37,866.19,782.65Z" transform="translate(-605.91 -330.83)"/><path class="cls-26" d="M901.94,817.24l-.31,5.18a2,2,0,0,1-2.08,1.92L803.11,822a1.53,1.53,0,0,1-1.48-1.53v-6.19Z" transform="translate(-605.91 -330.83)"/><path class="cls-27" d="M905.62,638.59h118.91c11.27-8,17.5-21,17.63-32.4a105.61,105.61,0,0,0-5.23-33.51S879,571.42,861.77,592s-9.67,77.59-4.41,110.61,5,75.07,5,75.07A79.94,79.94,0,0,0,879,780.86c9.67.84,20-1.68,20-1.68s6.52-43.32,8.83-84.32-9.48-56.17-9.48-56.17Z" transform="translate(-605.91 -330.83)"/><path class="cls-20" d="M980.65,434.46c-17.5-5.66-38.69,16.4-45,49.91s-18.88,71.29-18.88,71.29-28.08,8.05-40.28,9.73-27.89,3.79-27.89,3.79L852,596.31s21.38-8.49,38.2-9.75,56.5,3,60.42.42,23.55-31,35.75-69.81S999.3,440.49,980.65,434.46Z" transform="translate(-605.91 -330.83)"/><path class="cls-28" d="M937.68,422.68c.17-1.45-.5-3.17-1.91-3.52-1.14-.27-2.27.41-3.24,1.06l-9.8,6.58-16,10.71a14.23,14.23,0,0,1,7.35-1.62c5.55.28,15.58,5.39,21.85,8.9,1.53-5.66-1.59-12.25.32-18A20.79,20.79,0,0,0,937.68,422.68Z" transform="translate(-605.91 -330.83)"/><path class="cls-29" d="M929.05,440.08a38.64,38.64,0,0,0,19.15-10.35c9.43-9.1,10.73-25.71,10.78-26.34,1,.71,3.94,2,4.81,2.41-.21,2.46-2,18.26-11.88,27.78a44.23,44.23,0,0,1-23.34,11.52C928.42,444,929.17,441.2,929.05,440.08Z" transform="translate(-605.91 -330.83)"/><rect class="cls-23" x="1173.16" y="624.07" width="335.3" height="57.78" transform="translate(81.94 1662.93) rotate(-90)"/><rect class="cls-30" x="1119.99" y="628.68" width="315.19" height="68.67" transform="translate(8.66 1609.77) rotate(-90)"/><rect class="cls-31" x="706.01" y="212.33" width="57.78" height="15.54"/><rect class="cls-32" x="706.01" y="402.16" width="57.78" height="15.54"/><rect class="cls-33" x="706.01" y="426.63" width="57.78" height="15.54"/><rect class="cls-34" x="653.66" y="215.51" width="37.12" height="211.13"/><path class="cls-35" d="M1139.37,334.9c-1.43,5.49,1.85,11.11,5.23,16s7.11,10.06,6.68,15.7c-.39,5.18-4.26,9.54-5.49,14.59-2,8.4,3.36,16.77,6.21,25.09a43.63,43.63,0,0,1-1.06,31.1,47.71,47.71,0,0,1-22.09,23.3,58.76,58.76,0,0,1-21.24-36.09,51.17,51.17,0,0,1,9.65-38.44c3.25-4.34,7.24-8.33,9.26-13.27,2.63-6.47,1.54-13.71,2.14-20.63S1132.09,336.89,1139.37,334.9Z" transform="translate(-605.91 -330.83)"/><path class="cls-35" d="M1098.94,536c2.74,1.54,14-19.8,18.15-31.11s5.14-24.29,0-35.18c-1.93-4.1-4.74-8-5.15-12.5-.27-2.9.49-5.85-.07-8.71-1.22-6.31-8.11-9.78-11.23-15.4-2.7-4.89-2.29-10.88-4-16.21-3-9.69-19.83-22.63-20.94-21.18s2.32,11.61.22,17.21-5.49,10.63-8,16.08-4,11.71-2.21,17.4c1.53,4.71,5.18,8.45,7,13.05,4.48,11.31-3,24.52.67,36.1,1.72,5.35,5.65,9.68,9.77,13.49s6.88,8.65,10.17,13.21S1096.19,534.45,1098.94,536Z" transform="translate(-605.91 -330.83)"/><path class="cls-35" d="M1185.27,429.27c-.46,3.34-1.74,6.61-1.51,10,.43,6.37,6.15,11.79,5.42,18.13s-7.82,10.53-9.35,16.84c-1.24,5.07,1.38,10.21,2,15.39,1.2,9.65-4.54,18.86-11.37,25.79s-15,12.6-20.77,20.43c-6-10.77-11.79-21.91-13.85-34.05s.2-25.63,8.69-34.55c4.39-4.61,10.52-8.32,11.91-14.52,1.19-5.29-1.55-10.89-.27-16.16.93-3.84,3.86-6.87,6.94-9.36s6.45-4.69,8.9-7.8c2.7-3.44,2.72-6.68,2.62-10.73C1182.37,410.13,1186.19,422.61,1185.27,429.27Z" transform="translate(-605.91 -330.83)"/><path class="cls-36" d="M1098.47,546.45c.24-1.3,5.69-31.93,4.26-40.94a52.13,52.13,0,0,0-2.44-8.6c-2.47-7.2-5.85-17.06-5.36-34.56.71-25-10.38-46.05-10.49-46.26l-1.25.67c.11.21,11,21,10.33,45.55-.51,17.75,2.92,27.76,5.43,35.06a51,51,0,0,1,2.38,8.37c1.39,8.77-4.2,40.14-4.25,40.46Z" transform="translate(-605.91 -330.83)"/><path class="cls-36" d="M1124.27,546.33h1.42c0-.43-.21-43.17,1.71-56.45,2.07-14.28,4.14-42.51,1.36-61.72-2.34-16.18,3.28-32.21,7-42.82.74-2.11,1.38-3.93,1.86-5.49,2.86-9.29-.09-23.87-.22-24.49l-1.39.29c0,.15,3,14.84.26,23.78-.48,1.53-1.11,3.35-1.85,5.44-3.76,10.74-9.44,27-7.05,43.5,2.75,19.05.69,47.1-1.36,61.31C1124.06,503.06,1124.27,545.89,1124.27,546.33Z" transform="translate(-605.91 -330.83)"/><path class="cls-36" d="M1149.36,549c0-.34,1-33.55,5.69-55,3-13.75,6.17-18,10.17-23.42a73.4,73.4,0,0,0,7.48-11.91c7.63-15.26,3.29-25.94,3.1-26.38l-1.31.55c0,.1,4.26,10.56-3.06,25.2a71.81,71.81,0,0,1-7.35,11.7c-3.94,5.31-7.34,9.91-10.41,23.95-4.73,21.59-5.72,54.93-5.73,55.26Z" transform="translate(-605.91 -330.83)"/><path class="cls-36" d="M1088.67,619.62c-14.48-30.75-16.8-73.3-16.8-73.3h109.66s-2.32,42.55-16.8,73.3a28.11,28.11,0,0,1-25.44,16.14h-25.18A28.11,28.11,0,0,1,1088.67,619.62Z" transform="translate(-605.91 -330.83)"/><rect class="cls-37" x="804.68" y="475.29" width="17.48" height="17.48" transform="translate(704.98 958.46) rotate(-152.46)"/><rect class="cls-38" x="1394.54" y="605.61" width="17.48" height="17.48" transform="translate(2328.69 324.9) rotate(157.9)"/><rect class="cls-39" x="724.4" y="664.97" width="31.4" height="9.19" transform="translate(752.4 1122.25) rotate(-170.41)"/><rect class="cls-40" x="1211.65" y="374.92" width="36.02" height="9.19" transform="translate(53.51 -1104.97) rotate(46.55)"/><circle class="cls-41" cx="85.29" cy="75.3" r="6.57"/><path class="cls-42" d="M1059.38,340.5a5.59,5.59,0,1,0,5.59-5.6A5.59,5.59,0,0,0,1059.38,340.5Z" transform="translate(-605.91 -330.83)"/><circle class="cls-43" cx="67.56" cy="409.93" r="5.59"/></g></g></svg>