<?xml version="1.0" encoding="utf-8"?>
<!-- Generator: Adobe Illustrator 22.1.0, SVG Export Plug-In . SVG Version: 6.00 Build 0)  -->
<svg version="1.1" id="Warstwa_1" xmlns="http://www.w3.org/2000/svg" xmlns:xlink="http://www.w3.org/1999/xlink" x="0px" y="0px"
	 viewBox="0 0 1900.3 1000" style="enable-background:new 0 0 1900.3 1000;" xml:space="preserve">
<style type="text/css">
	.st0{fill:url(#SVGID_1_);}
	.st1{fill:url(#SVGID_2_);}
	.st2{fill:#FFFFFF;stroke:#000000;stroke-miterlimit:10;}
	.st3{fill:url(#SVGID_3_);}
</style>
<linearGradient id="SVGID_1_" gradientUnits="userSpaceOnUse" x1="1412.9182" y1="648.7953" x2="147.7652" y2="1604.576" gradientTransform="matrix(1 0 0 1 0 0.1102)">
	<stop  offset="0" style="stop-color:#DFF0E9"/>
	<stop  offset="1" style="stop-color:#F7F3E1"/>
</linearGradient>
<path class="st0" d="M1900.3,164c0-10,0-20,0-30c0-3.6,0-6.3,0-8.4c0-2,0-3.7,0-4.9c0-1.8,0-2,0-2.1c0-1.3,13.3-7.6,13.3-8.4
	c-0.1-3.5-218.3,13-408.9,4.9c-190.7-8.1-305.3-38.8-381.4,38.8c-9.1,9.3-16,19.7-29.9,40.6C1002,332.3,1042.2,419.2,979.6,472
	c-72.1,60.9-195.2,28.3-279.1,75.1c-115.8,64.3-95.2,236.9-202,313.1c-85,60.5-207.6,32.4-314.2,48.2C113.5,918.9,49.1,953,0,1000
	h1900.3C1900.3,721.3,1900.3,442.7,1900.3,164z"/>
<linearGradient id="SVGID_2_" gradientUnits="userSpaceOnUse" x1="1814.7854" y1="893.2435" x2="1562.7302" y2="702.8243" gradientTransform="matrix(1 0 0 -1 0 1000)">
	<stop  offset="0" style="stop-color:#DFF0E9"/>
	<stop  offset="1" style="stop-color:#F7F3E1"/>
</linearGradient>
<path class="st1" d="M1991.6,101.4c-150.3,28.1-300.5,56.3-450.8,84.4c-0.2,0-0.3,0.1-0.5,0.1"/>
<path class="st2" d="M1391,166"/>
<linearGradient id="SVGID_3_" gradientUnits="userSpaceOnUse" x1="1470.1851" y1="119.8383" x2="1448.5972" y2="136.1472">
	<stop  offset="0" style="stop-color:#DFF0E9"/>
	<stop  offset="1" style="stop-color:#F7F3E1"/>
</linearGradient>
<path class="st3" d="M1445,66c14,38,28,76,42,114"/>
</svg>
