<svg id="Layer_1" data-name="Layer 1" xmlns="http://www.w3.org/2000/svg" viewBox="0 0 344 358.18"><defs><style>.cls-1{fill:#262f3f;}.cls-2{fill:#233651;}.cls-3{fill:#3c3c3b;}.cls-4{fill:#41868f;}.cls-5{fill:#4e3d5f;}.cls-6{fill:#db495e;}.cls-7{fill:none;}</style></defs><title>rrr</title><g id="_grupa_" data-name="&lt;grupa&gt;"><rect class="cls-1" width="65.44" height="358.18" rx="3.73" ry="3.73"/><rect class="cls-1" x="54.5" y="298" width="204.5" height="60" rx="2.93" ry="2.93"/><path class="cls-2" d="M172,207.08H269.4v-7.38H172c-11.46,0-15.72-2.48-15.72-9.12,0-8.57,4.18-9.19,11.1-9.19.75,0,1.48,0,2.19,0l2.18,0h97.7V174H169.68l-2.35,0c-5.53,0-20.25,0-20.25,16.57,0,11,8.38,16.51,24.87,16.51Zm0,0" transform="translate(-44 -16)"/><rect class="cls-3" x="122.24" y="168.04" width="97.45" height="2.45"/><rect class="cls-3" x="122.24" y="173.16" width="97.45" height="2.44"/><rect class="cls-3" x="122.24" y="178.6" width="97.45" height="2.46"/><polygon class="cls-4" points="225.4 158 233.35 161.71 225.4 165.43 225.4 158"/><polygon class="cls-5" points="231.13 160.67 231.13 162.75 233.35 161.71 231.13 160.67"/><path class="cls-2" d="M254.16,252.9l2.78,0c6.58,0,24.11,0,24.11-19.72,0-13-10-19.66-29.62-19.66h-116v8.8h116c13.65,0,18.75,2.94,18.75,10.86,0,10.19-5,10.93-13.24,10.93-.89,0-1.76,0-2.62,0l-2.57,0H135.43v8.79H251.75l2.41,0Zm0,0" transform="translate(-44 -16)"/><rect class="cls-3" x="98.23" y="222.3" width="116.02" height="2.44"/><rect class="cls-3" x="98.23" y="216.18" width="116.02" height="2.46"/><rect class="cls-3" x="98.23" y="209.71" width="116.02" height="2.46"/><polygon class="cls-5" points="91.43 206.34 82 201.94 91.43 197.54 91.43 206.34"/><polygon class="cls-6" points="84.64 203.17 84.64 200.71 82 201.94 84.64 203.17"/><path class="cls-2" d="M289.49,259.5H159.68l-2.68,0c-1,0-2.06,0-3.1,0-7.36,0-26.92,0-26.92,22C127,296,138.11,303.4,160,303.4H289.49v-9.83l-129.45,0c-15.25,0-20.92-3.29-20.92-12.14,0-11.38,5.59-12.19,14.78-12.19,1,0,1.95,0,2.9,0s2,0,2.88,0H289.49Zm0,0" transform="translate(-44 -16)"/><rect class="cls-3" x="108.43" y="257.17" width="129.47" height="2.46"/><rect class="cls-3" x="108.43" y="263.99" width="129.47" height="2.46"/><rect class="cls-3" x="108.43" y="271.21" width="129.47" height="2.46"/><polygon class="cls-2" points="245.5 243.5 256 248.4 245.5 253.31 245.5 243.5"/><polygon class="cls-4" points="253.06 247.03 253.06 249.77 256 248.4 253.06 247.03"/></g><line class="cls-7" x1="343" y1="202" x2="344" y2="202"/></svg>