<svg id="Layer_1" data-name="Layer 1" xmlns="http://www.w3.org/2000/svg" viewBox="0 0 259 358.18"><defs><style>.cls-1,.cls-3{fill:#262f3f;}.cls-1,.cls-2{fill-rule:evenodd;}.cls-2{fill:#266baa;}</style></defs><title>logo-LearnBy</title><path class="cls-1" d="M233.29,230.28c10.55,1.23,18.29-2,21.9-11.88-3.73.29-9.23.1-12.28-1.45-1.67-.84-.46-3.52,1.21-2.67a10.9,10.9,0,0,0,2.86.86c24.4,4.36,35.22-21,16.38-42.28-30-33.93-90.72-14-90,32.15.13,8.13,2.45,15.49,9.64,20.1a14.81,14.81,0,0,0,10.53,2.62,6.08,6.08,0,0,0,3.21-.95c1.42-1.24,3.21,1.06,1.79,2.29-2,1.75-6.25,1.87-9.24,1.54,3.53,6.56,14.08,8.54,19.78,5.7l-1.38,10.5,4.76,1.11,7.3-11.16c5.41-.43,10.09-3.68,11.36-9.14a10.68,10.68,0,0,0,.26-4.09,1.41,1.41,0,1,1,2.74-.64,15.1,15.1,0,0,1-.86,7.39Zm-9.71-82.11a55.5,55.5,0,0,1,55.5,55.51c0,.85,0,1.68,0,2.51l2.2,2.51c2.84,3.23,5.58,6.43,8.46,10,5.24,6.47-2.68,4.57-7,7.15-2.23,1.35-1.94,2.23-.9,3.5,2.05,2.5,5,5,1.1,7.9s1.91.37-2.25,6.58c-1.5,2.24-1.24,2.28-.57,5,2.46,9.81,2.1,15.59-11.76,16.15-3.17.13-6.37-.21-12.23,1.28-2.76.7-4.53,1.65-5.63,3a41.64,41.64,0,0,0-1,9.32A7.51,7.51,0,0,1,242,286h-36.8a7.51,7.51,0,0,1-7.48-7.49c0-30.57-29.62-35.68-29.62-74.83A55.5,55.5,0,0,1,223.58,148.17Z" transform="translate(-47 -16)"/><path class="cls-1" d="M205.71,303.43a3.45,3.45,0,0,0,0,6.9h35.68a3.45,3.45,0,1,0,0-6.9Zm23.84,19.06h9.34a3.45,3.45,0,0,0,0-6.9H208.2a3.45,3.45,0,1,0,0,6.9h9.33l.43,1c.17.37.62,1.63,1.15,1.63H228c.53,0,1-1.24,1.14-1.62Zm-25.8-31.22a3.45,3.45,0,0,0,0,6.89h39.59a3.45,3.45,0,1,0,0-6.89Z" transform="translate(-47 -16)"/><path class="cls-1" d="M242.91,125.21h0a1.88,1.88,0,0,1,1.33,2.3l-4,14.86a1.88,1.88,0,0,1-2.3,1.33h0a1.89,1.89,0,0,1-1.33-2.31l4-14.85a1.88,1.88,0,0,1,2.3-1.33Zm-99,57.13h0a1.89,1.89,0,0,1,2.31-1.33l14.85,4a1.89,1.89,0,0,1,1.33,2.31h0a1.88,1.88,0,0,1-2.3,1.33l-14.86-4A1.9,1.9,0,0,1,144,182.34Zm20.92-36.22h0a1.89,1.89,0,0,1,2.66,0L178.4,157a1.9,1.9,0,0,1,0,2.67h0a1.89,1.89,0,0,1-2.66,0l-10.88-10.88A1.88,1.88,0,0,1,164.87,146.12Zm0,114.27h0a1.87,1.87,0,0,1,0-2.66l10.87-10.87a1.87,1.87,0,0,1,2.66,0h0a1.89,1.89,0,0,1,0,2.66l-10.87,10.87A1.89,1.89,0,0,1,164.87,260.39ZM144,224.17h0a1.9,1.9,0,0,1,1.33-2.31l14.86-4a1.88,1.88,0,0,1,2.3,1.33h0a1.89,1.89,0,0,1-1.33,2.31l-14.85,4A1.89,1.89,0,0,1,144,224.17Zm135.18-78h0a1.87,1.87,0,0,1,0,2.66l-10.87,10.88a1.89,1.89,0,0,1-2.66,0h0a1.9,1.9,0,0,1,0-2.67l10.87-10.87A1.89,1.89,0,0,1,279.13,146.12Zm20.92,36.22h0a1.89,1.89,0,0,1-1.33,2.31l-14.86,4a1.88,1.88,0,0,1-2.3-1.33h0a1.89,1.89,0,0,1,1.33-2.31l14.85-4A1.89,1.89,0,0,1,300.05,182.34Zm-99-57.13h0a1.88,1.88,0,0,1,2.3,1.33l4,14.85A1.89,1.89,0,0,1,206,143.7h0a1.88,1.88,0,0,1-2.3-1.33l-4-14.86A1.88,1.88,0,0,1,201.09,125.21Z" transform="translate(-47 -16)"/><path class="cls-2" d="M305.43,155.09h0a1.89,1.89,0,0,1-.69,2.57L278,173.12a1.89,1.89,0,0,1-1.88-3.27l26.77-15.45a1.88,1.88,0,0,1,2.57.69ZM222,106.92h0a1.88,1.88,0,0,1,1.88,1.88v30.91A1.89,1.89,0,0,1,222,141.6h0a1.89,1.89,0,0,1-1.88-1.89V108.8A1.88,1.88,0,0,1,222,106.92Zm-83.43,144.5h0a1.89,1.89,0,0,1,.69-2.57L166,233.4a1.89,1.89,0,0,1,2.57.68h0a1.88,1.88,0,0,1-.69,2.57l-26.77,15.45A1.88,1.88,0,0,1,138.57,251.42Zm0-96.33h0a1.88,1.88,0,0,1,2.57-.69l26.77,15.45a1.89,1.89,0,0,1,.69,2.58h0a1.9,1.9,0,0,1-2.57.69l-26.77-15.46A1.89,1.89,0,0,1,138.57,155.09Z" transform="translate(-47 -16)"/><rect class="cls-3" width="65.44" height="358.18" rx="3.73"/><rect class="cls-3" x="54.5" y="298" width="204.5" height="60" rx="2.93"/></svg>