<?xml version="1.0" encoding="utf-8"?>
<!-- Generator: Adobe Illustrator 23.0.6, SVG Export Plug-In . SVG Version: 6.00 Build 0)  -->
<svg version="1.1" id="Warstwa_1" xmlns="http://www.w3.org/2000/svg" xmlns:xlink="http://www.w3.org/1999/xlink" x="0px" y="0px"
	 viewBox="0 0 1002.9 154.9" style="enable-background:new 0 0 1002.9 154.9;" xml:space="preserve">
<style type="text/css">
	.st0{fill:#DEF3EB;}
	.st1{fill:#4AE5A5;}
</style>
<title>wave-bck-mobile-main-page</title>
<path class="st0" d="M0,64.4c43.2,43.9,83.8,62.3,111.6,71c91.3,28.7,211-10.2,446.5-89c24.3-8.1,75.2-25.4,142.2-23.9
	c17.7,0.4,62.1,1.7,114.8,20c51,17.6,65.8,43,125.7,63.4c26,8.9,48.2,13,62.1,15.1c0-40.3,0-80.6,0-120.9C668.6,0,334.3,0,0,0
	C0,21.5,0,42.9,0,64.4z"/>
<path class="st1" d="M680.5,237"/>
<path class="st1" d="M646.5,270"/>
<path class="st1" d="M332.5,266"/>
<path class="st1" d="M968.5,231"/>
<path class="st1" d="M718.5,293"/>
<path class="st0" d="M367.6,121.2"/>
<path class="st0" d="M523.6,147.3"/>
<path class="st0" d="M417.3,224.4"/>
</svg>
