<?xml version="1.0"?>
<svg xmlns="http://www.w3.org/2000/svg" xmlns:xlink="http://www.w3.org/1999/xlink" version="1.1" id="Layer_1" x="0px" y="0px" viewBox="0 0 512 512" style="enable-background:new 0 0 512 512;" xml:space="preserve" width="512px" height="512px" class=""><g><path style="fill:#656565" d="M365.463,283.767c-18.849,0-34.13-15.281-34.13-34.13V143.593c0-41.539-33.795-75.332-75.332-75.332  c-41.539,0-75.333,33.795-75.333,75.332v106.044c0,18.849-15.281,34.13-34.13,34.13s-34.13-15.281-34.13-34.13V143.593  C112.408,64.416,176.823,0,256,0s143.592,64.416,143.592,143.592v106.044C399.594,268.486,384.312,283.767,365.463,283.767z" data-original="#C7CFE2" class="active-path" data-old_color="#C7CFE2"/><g style="opacity:0.1;">
	<path d="M146.538,283.767c18.849,0,34.13-15.281,34.13-34.13v-76.023h-68.26v76.023   C112.408,268.486,127.688,283.767,146.538,283.767z" data-original="#000000" class="" style="fill:#656565" data-old_color="#000000"/>
	<path d="M331.333,173.614v76.023c0,18.849,15.281,34.13,34.13,34.13s34.13-15.281,34.13-34.13v-76.023H331.333z" data-original="#000000" class="" style="fill:#656565" data-old_color="#000000"/>
</g><path style="fill:#656565" d="M404.055,207.745H107.945c-17.577,0-31.825,14.249-31.825,31.825v240.605  c0,17.577,14.248,31.825,31.825,31.825h296.111c17.577,0,31.825-14.248,31.825-31.825V239.57  C435.882,221.993,421.632,207.745,404.055,207.745z" data-original="#FFD782" class="" data-old_color="#FFD782"/></g> </svg>
