<svg id="Warstwa_1" data-name="Warstwa 1" xmlns="http://www.w3.org/2000/svg" viewBox="0 0 1500 122.31"><defs><style>.cls-1{fill:#28D0B9;}.cls-2{fill:#4bc0b1;}</style></defs><title>Bez nazwy-3</title><path class="cls-1" d="M0,300c8.32-16,22.38-36.41,45.86-47.12,34.37-15.67,64.42,1.51,102.89,7.25,72.16,10.77,80.37-32,174-43.87,106.21-13.45,128.79,37.46,212.38,9.36,52.11-17.51,54.62-41.07,104.95-46.65,35.83-4,46.36,1.45,127.53,14.49,138.67,22.28,160.32-36.64,253.63-5.79,67.83,22.42,74.61,58.38,133.33,58,51-.36,66.29-27.6,113-17.39,45.72,10,47.88,39.68,92.76,43.47,36.41,3.08,50.57-15.15,84.44-7.28,26.14,6.07,44.41,23.14,55.21,35.56Z" transform="translate(0 -177.69)"/><path class="cls-2" d="M844.41,422.45" transform="translate(0 -177.69)"/><path class="cls-2" d="M253.1,70.28" transform="translate(0 -177.69)"/></svg>