<svg id="Warstwa_1" data-name="Warstwa 1" xmlns="http://www.w3.org/2000/svg" viewBox="0 0 1500 89.28"><defs><style>.cls-1{fill:#28D0B9;}.cls-2{fill:#4bc0b1;}</style></defs><title>Bez nazwy-3</title><path class="cls-1" d="M0,300c8.32-16,22.38-36.41,45.86-47.12,34.23-15.61,64.57.93,102.89,7.25,71.09,11.73,76.76-26.53,173.66-35.46,104.14-9.59,119.64,32.57,212.43,11.05,31.73-7.36,51.38-17.26,97.52-22.16,25.08-2.66,61.15-6.19,104.73,3.88,37.7,8.71,36,17.18,65.39,21.61,44.85,6.74,59.06-11.44,106.29-13.94,43.77-2.32,41.89,12.74,117,25,28.68,4.69,74.38,11.86,130.77,6.65,64.48-6,69.45-21.33,110.27-15,46.53,7.25,49.56,28.7,93.53,29.9,38.39,1.06,52.3-14.75,84.44-7.28,26.14,6.07,44.41,23.14,55.21,35.56Z" transform="translate(0 -210.72)"/><path class="cls-2" d="M844.41,422.45" transform="translate(0 -210.72)"/><path class="cls-2" d="M253.1,70.28" transform="translate(0 -210.72)"/></svg>