<svg id="Warstwa_1" data-name="Warstwa 1" xmlns="http://www.w3.org/2000/svg" viewBox="0 0 960 766.58"><defs><style>.cls-1{fill:#4db6ac;}</style></defs><title>deformed-circle-mobile</title><path class="cls-1" d="M748,526.3c-5.38,174.05-148.39,383.28-374,383.28C167.45,909.58,0,738,0,526.3,0,292,210,141.66,374,143c87.86.72,193.66,45.21,264.26,113.76a354.43,354.43,0,0,1,31.53,34.9S752.18,390.94,748,526.3Z" transform="translate(0 -143)"/><path class="cls-1" d="M629.43,249a539.26,539.26,0,0,0,45.41,32.32c5,3.21,9.73,6.08,14.23,8.73,14.36,8.47,27.27,15.29,33.7,18.42,6.11,3,36,17.47,68.12,20.68,62.24,6.23,95.9-33.7,134-8.53a39,39,0,0,1,4,2.88c12.33,10.67,29.63,45.14,31.1,221.5,1.47,176.19-15.34,196.94-29,205.34-20,12.26-35.37-.51-78.19-8.4a248.13,248.13,0,0,0-56.78-5.2c-1.22,0-2.64.09-4.3.2-46.13,3.21-92.43,27.4-100.39,31.73-2.7,1.47-2.46,1.39-46.67,29.73l-50.46,32.32Q611.77,539.87,629.43,249Z" transform="translate(0 -143)"/><path class="cls-1" d="M944.77,673" transform="translate(0 -143)"/><path class="cls-1" d="M797.19,851.41" transform="translate(0 -143)"/><path class="cls-1" d="M681.15,811.34" transform="translate(0 -143)"/><path class="cls-1" d="M657.18,210.23" transform="translate(0 -143)"/><path class="cls-1" d="M605.46,869.51" transform="translate(0 -143)"/><path class="cls-1" d="M746.74,960" transform="translate(0 -143)"/><path class="cls-1" d="M-529-50" transform="translate(0 -143)"/></svg>