<svg id="OBJECTS" xmlns="http://www.w3.org/2000/svg" xmlns:xlink="http://www.w3.org/1999/xlink" viewBox="0 0 679.66 361.91"><defs><style>.cls-1,.cls-10,.cls-14,.cls-19,.cls-23,.cls-9{fill:none;}.cls-2{fill:#3a352c;}.cls-3{fill:#eaa26c;}.cls-4{fill:#39b1c1;}.cls-5{fill:#6a82ea;}.cls-6{clip-path:url(#clip-path);}.cls-7{fill:#f2f4f4;}.cls-8{fill:#4f443d;}.cls-9{stroke:#2b2c2d;}.cls-10,.cls-14,.cls-19,.cls-23,.cls-9{stroke-miterlimit:10;}.cls-10,.cls-14,.cls-19,.cls-9{stroke-width:1.21px;}.cls-10{stroke:#d3885e;}.cls-11{fill:#fff;}.cls-12{fill:#ffcdab;}.cls-13{fill:#49340f;}.cls-14{stroke:#683e2d;}.cls-15{fill:#7bc12b;}.cls-16{fill:#4db6ac;}.cls-17{fill:#f7e3a8;}.cls-18{fill:#e59a2e;}.cls-19{stroke:#f4b290;}.cls-20{fill:#00bcd4;}.cls-21{fill:#3f51b5;}.cls-22{fill:#60411f;}.cls-23{stroke:#915f2d;}</style><clipPath id="clip-path" transform="translate(-36.63 -63.16)"><path class="cls-1" d="M554.88,208.72c-1.68-3.69-18.13-17.79-29.54-21.82s-30.54-6.71-35.58-8.05-11.75,0-11.75,0l-8.2,19.52a2,2,0,0,1-3.54.24L456.2,181.53c-1.35,0-9.07,2-12.09,5S434.72,220.8,425,223.83s-23.12,1.24-32.52-.1c-.08,0-6.35-1.95-6.42-2-1.5,4.53-.43,10.4-.86,14.93a7,7,0,0,1,2.21,1.22c3.36,2.69,36.92,10.41,43,6.72s20.48-24.51,20.48-24.51,3,22.83,1,29.54-4.7,9.4-1.34,10.07,39.94,17.79,57.4,6c0,0,1.34-25.51,1.34-37.59V212.75s19.47,1.68,25.17,6c5,3.81-2.56,25.5-6.57,33.2,2.08,4,7.08,8.35,11.11,10.43,3.75-4,5.92-11,8.22-17.11C553.2,229.2,556.56,212.41,554.88,208.72Z"/></clipPath></defs><title>2891010</title><path class="cls-2" d="M430.87,380.15s-7.47,12-7,15,6-.25,11.21-5,9-5.73,10.21-7.22-3.48-9-3.48-9Z" transform="translate(-36.63 -63.16)"/><path class="cls-2" d="M458.56,385.12s.43,14.09-1.51,16.43-5-3.23-7.17-10-4.86-9.47-5.18-11.39,7.53-6,7.53-6Z" transform="translate(-36.63 -63.16)"/><path class="cls-3" d="M456.2,181.53s2.11-.62,2.44-4.22c0,0-2.94,1.8-5.88-3.26s-6.36-25.3-2.61-27.91,11.75-7.84,21.87-.66,3.11,25.63,2.29,28.57,3.7,4.8,3.7,4.8l-8.6,25.89Z" transform="translate(-36.63 -63.16)"/><path class="cls-3" d="M369.6,222.48c-4.36,3.36-6,6-.34,7.05s10.74,3,6.38,4.7l-4.36,1.68s-1.68,2.68,4,1.68c4.44-.79,7.26-1.77,9.87-.89a62.89,62.89,0,0,1,3.33-13.58C379.25,221.77,373.93,219.15,369.6,222.48Z" transform="translate(-36.63 -63.16)"/><path class="cls-3" d="M527.83,252a13.62,13.62,0,0,1-1.48,2.38c-3,3.36-11.75,1.34-12.42,3.69s5.37,2.69,6.38,2.69-7,7.05-9.4,7.72,1.68,6.71,9.06,4a48.33,48.33,0,0,0,17.73-12.07C533.68,258.35,529.91,256,527.83,252Z" transform="translate(-36.63 -63.16)"/><path class="cls-4" d="M452,260s-47.42,29.91-52.16,44.14,29.54,77,29.54,77,11.31-2.56,13.87-8.39c0,0-14.6-44.51-16.78-50.71,0,0,36.84-31.73,42.31-31.37S495.36,335.5,497.91,337s-20.06,11.67-31,21.52a208.59,208.59,0,0,0-16.05,15.69l6.93,11.67s55.08-25.9,62.38-34.29-12.28-85.77-12.28-85.77Z" transform="translate(-36.63 -63.16)"/><path class="cls-5" d="M554.88,208.72c-1.68-3.69-18.13-17.79-29.54-21.82s-30.54-6.71-35.58-8.05-11.75,0-11.75,0l-8.2,19.52a2,2,0,0,1-3.54.24L456.2,181.53c-1.35,0-9.07,2-12.09,5S434.72,220.8,425,223.83s-23.12,1.24-32.52-.1c-.08,0-6.35-1.95-6.42-2-1.5,4.53-.43,10.4-.86,14.93a7,7,0,0,1,2.21,1.22c3.36,2.69,36.92,10.41,43,6.72s20.48-24.51,20.48-24.51,3,22.83,1,29.54-4.7,9.4-1.34,10.07,39.94,17.79,57.4,6c0,0,1.34-25.51,1.34-37.59V212.75s19.47,1.68,25.17,6c5,3.81-2.56,25.5-6.57,33.2,2.08,4,7.08,8.35,11.11,10.43,3.75-4,5.92-11,8.22-17.11C553.2,229.2,556.56,212.41,554.88,208.72Z" transform="translate(-36.63 -63.16)"/><g class="cls-6"><path class="cls-7" d="M393.31,217.41c-3.72,7.74-7.63,21.56-2.17,29.42,1.1,1.58,3.72.07,2.61-1.53-4.81-6.91-1.1-19.56,2.16-26.36.84-1.74-1.76-3.28-2.6-1.53Z" transform="translate(-36.63 -63.16)"/><path class="cls-7" d="M399,220.55a36.58,36.58,0,0,0,.94,26.94c.75,1.78,3.35.24,2.6-1.53a33.53,33.53,0,0,1-.63-24.61c.64-1.83-2.27-2.62-2.91-.8Z" transform="translate(-36.63 -63.16)"/><path class="cls-7" d="M408.23,221.62c-1.21,8.47-2.13,17,1.83,24.88.86,1.74,3.47.21,2.6-1.52-3.55-7.09-2.61-15-1.52-22.56.27-1.89-2.64-2.71-2.91-.8Z" transform="translate(-36.63 -63.16)"/><path class="cls-7" d="M416.41,219.58c-.22,10.5-.24,24.7,10.16,30.69a1.51,1.51,0,0,0,1.52-2.61c-9.34-5.37-8.86-18.77-8.67-28.08,0-1.94-3-1.94-3,0Z" transform="translate(-36.63 -63.16)"/><path class="cls-7" d="M425,219.93A28.64,28.64,0,0,0,436,242.71c1.52,1.17,3.67-1,2.14-2.14A25.74,25.74,0,0,1,428,219.93a1.51,1.51,0,0,0-3,0Z" transform="translate(-36.63 -63.16)"/><path class="cls-7" d="M431.4,211.78c1.15,9.41,2.91,19.48,11.78,24.65a1.51,1.51,0,0,0,1.53-2.6c-7.87-4.59-9.28-13.77-10.29-22.05-.23-1.9-3.25-1.92-3,0Z" transform="translate(-36.63 -63.16)"/><path class="cls-7" d="M434.48,204c3.8,7.77,7.15,16.53,14.81,21.3,1.65,1,3.17-1.58,1.52-2.6-7.1-4.42-10.21-13-13.73-20.22-.85-1.75-3.45-.22-2.6,1.52Z" transform="translate(-36.63 -63.16)"/><path class="cls-7" d="M447.1,251.45c9.48,6.34,20.17,10.13,31.28,12.46,10.56,2.22,21.67,3.82,31.92-.45,1.77-.73,1-3.65-.8-2.9-10.4,4.32-21.66,2.42-32.31,0-10.18-2.3-19.86-5.9-28.57-11.73-1.61-1.08-3.13,1.53-1.52,2.61Z" transform="translate(-36.63 -63.16)"/><path class="cls-7" d="M447.08,242.58a94.82,94.82,0,0,0,64.66,13.11c1.92-.29,1.1-3.2-.8-2.91A91.53,91.53,0,0,1,448.61,240c-1.66-1-3.17,1.59-1.53,2.61Z" transform="translate(-36.63 -63.16)"/><path class="cls-7" d="M449,236a109.16,109.16,0,0,0,65.59,5.06c1.89-.44,1.09-3.35-.8-2.91a106.29,106.29,0,0,1-64-5.06c-1.8-.73-2.58,2.19-.8,2.91Z" transform="translate(-36.63 -63.16)"/><path class="cls-7" d="M449.24,230.29a131.64,131.64,0,0,0,66.06-.68,1.51,1.51,0,0,0-.8-2.91,128.28,128.28,0,0,1-64.45.68c-1.89-.46-2.69,2.44-.81,2.91Z" transform="translate(-36.63 -63.16)"/><path class="cls-7" d="M450.66,225a220.55,220.55,0,0,0,62.46-4.33c1.9-.41,1.1-3.32-.8-2.91A217.49,217.49,0,0,1,450.66,222c-1.93-.14-1.92,2.87,0,3Z" transform="translate(-36.63 -63.16)"/><path class="cls-7" d="M528.28,244.3a30.27,30.27,0,0,0,19.87,13c1.9.34,2.71-2.57.8-2.91a27.32,27.32,0,0,1-18.07-11.58c-1.09-1.59-3.7-.08-2.6,1.53Z" transform="translate(-36.63 -63.16)"/><path class="cls-7" d="M531.22,237.53a46.75,46.75,0,0,0,20.89,7.24c1.93.19,1.92-2.83,0-3a43.41,43.41,0,0,1-19.37-6.83c-1.64-1-3.15,1.56-1.52,2.61Z" transform="translate(-36.63 -63.16)"/><path class="cls-7" d="M533,230.05c6.4,2.76,14,5.71,21,3.87a1.51,1.51,0,0,0-.8-2.91c-6.07,1.59-13.08-1.16-18.64-3.57-1.77-.76-3.3,1.84-1.53,2.61Z" transform="translate(-36.63 -63.16)"/><path class="cls-7" d="M533.74,224.18c7.21,1.92,14.47,3.45,21.45,0,1.74-.86.21-3.46-1.52-2.6-6.17,3.06-12.82,1.39-19.13-.29a1.51,1.51,0,0,0-.8,2.91Z" transform="translate(-36.63 -63.16)"/><path class="cls-7" d="M529.59,220.65c1.34,1.35,2.6.61,4.23,0,3.18-1.1,6.4-2.27,9.48-3.63,5.73-2.5,8.8-6.93,11.79-12.22,1-1.69-1.65-3.22-2.6-1.52-2.08,3.66-4.2,7.41-7.86,9.71-.89.56-12.42,6-12.9,5.48a1.51,1.51,0,0,0-2.14,2.13Z" transform="translate(-36.63 -63.16)"/><path class="cls-7" d="M541.14,195.84c-4.14,7.49-9.54,19.5-18.64,21.74-1.89.46-1.09,3.37.8,2.9,10-2.46,15.91-14.91,20.45-23.12.94-1.7-1.67-3.22-2.61-1.52Z" transform="translate(-36.63 -63.16)"/><path class="cls-7" d="M531.47,189.55a58.89,58.89,0,0,1-11.48,25c-1.18,1.51.94,3.65,2.13,2.13a62.07,62.07,0,0,0,12.26-26.38c.38-1.89-2.52-2.71-2.91-.8Z" transform="translate(-36.63 -63.16)"/><path class="cls-7" d="M521.71,185.34a137.49,137.49,0,0,1-8.31,27.73c-.75,1.79,2.17,2.57,2.91.81a136.92,136.92,0,0,0,8.3-27.74c.36-1.9-2.55-2.71-2.9-.8Z" transform="translate(-36.63 -63.16)"/></g><path class="cls-8" d="M456.54,156.74c-1.8-.43-3.43-1.45-5.25-1.76s-3.61.09-5.32-.4a5.51,5.51,0,0,1-3.71-3.69,5.27,5.27,0,0,0,5.11-1.6,4.3,4.3,0,0,1-3.46-3.8,7.86,7.86,0,0,0,5.15-.58,50.75,50.75,0,0,0,4.62-2.54,18.69,18.69,0,0,1,9.54-2.64,11,11,0,0,1,8.63,4.35c.48.69,1,1.53,1.82,1.61,1.07.09,1.74-1.11,2.11-2.12l.06,4.07a3.94,3.94,0,0,0,.15,1.28,4.35,4.35,0,0,0,.84,1.29,12,12,0,0,1,2.21,3.56,11.44,11.44,0,0,1,.4,4.94,27,27,0,0,1-1.39,6.28c-.57,1.6-1.48,3.32-3.11,3.78.2-1.05-.92-1.84-1.9-2.28s-2.13-1.13-2.06-2.2c0-.72.66-1.25,1.14-1.78a4.72,4.72,0,0,0,1.34-3.32,3,3,0,0,0-2-2.76,2.24,2.24,0,0,0-2.77,1.67c-1.3-1.77-1.56-3.67-2.1-5.67C463.89,155.32,460.77,157.75,456.54,156.74Z" transform="translate(-36.63 -63.16)"/><path class="cls-9" d="M449.47,164.51a2.74,2.74,0,0,1,2.27-1.73,2.14,2.14,0,0,1,2.21,1.64" transform="translate(-36.63 -63.16)"/><path class="cls-9" d="M459.7,163.77a2.69,2.69,0,0,1,4.63-.85" transform="translate(-36.63 -63.16)"/><path class="cls-8" d="M458.21,159.05s-.39,1.15,1.26.87,5.22.73,5.22.73a3.7,3.7,0,0,0-2.6-2.33c-1.91-.34-3.8-.76-4-.41A2.43,2.43,0,0,0,458.21,159.05Z" transform="translate(-36.63 -63.16)"/><path class="cls-8" d="M452.55,159.63s.54,1.05-.86,1-4.13,1.29-4.13,1.29.18-2,1.68-2.52,3-1.16,3.16-.84A2.7,2.7,0,0,1,452.55,159.63Z" transform="translate(-36.63 -63.16)"/><path class="cls-10" d="M455.88,162.84a6.58,6.58,0,0,1-.58,3.84,2.51,2.51,0,0,0-.61,1.27,1.14,1.14,0,0,0,.58.93,1.9,1.9,0,0,0,1.1.24" transform="translate(-36.63 -63.16)"/><path class="cls-11" d="M452.76,170.88a10.15,10.15,0,0,0,8.23-.27s-.55,4.44-4.53,4S452.76,170.88,452.76,170.88Z" transform="translate(-36.63 -63.16)"/><polygon class="cls-12" points="285.43 252.1 282.54 260.46 291.81 263.19 295.91 254.07 285.43 252.1"/><polygon class="cls-12" points="247.63 286.47 246.88 295.28 256.54 295.66 258.28 285.82 247.63 286.47"/><path class="cls-13" d="M313.94,110.51c1.35,4.14,3,8.74,7,10.54,1.42.66,3.08.9,4.24,1.94,1.34,1.19,1.7,3.13,1.72,4.92a21.14,21.14,0,0,0,.25,5.34c.83,3.07,3.64,5.11,6.09,7.15a18.3,18.3,0,0,1,5.44,6.59c1.12,2.64,1.09,5.93-.71,8.17-1.45,1.81-3.77,2.66-6,3.22a51,51,0,0,1-12.19,1.27c-4.77,0-9.83-.51-13.6-3.41a22.13,22.13,0,0,1-4.48-5.11,24.4,24.4,0,0,1-3.11-5.66,26.32,26.32,0,0,1-1-8.49c0-4.49.09-9,.2-13.48.1-3.79.19-7.59.62-11.36.5-4.43,2.34-9.77,7.2-11.12S312.81,107,313.94,110.51Z" transform="translate(-36.63 -63.16)"/><path class="cls-12" d="M307.32,139.24s-2.16-.44-2.81-4c0,0,3.09,1.52,5.57-3.78s4.09-25.77.12-28-12.41-6.76-21.85,1.29-.81,25.8.26,28.66-3.26,5.11-3.26,5.11l-.17,20.34c.78,1.81,23.06,2.21,23.88.41Z" transform="translate(-36.63 -63.16)"/><path class="cls-9" d="M312.51,121.69a2.74,2.74,0,0,0-2.42-1.52,2.13,2.13,0,0,0-2,1.83" transform="translate(-36.63 -63.16)"/><path class="cls-9" d="M302.25,121.86a2.69,2.69,0,0,0-4.69-.43" transform="translate(-36.63 -63.16)"/><path class="cls-13" d="M303.18,116.54s.38.69-1.23.76a27.24,27.24,0,0,0-5.12,1.25,4.08,4.08,0,0,1,2.55-1.91c1.88-.5,3.74-1.07,3.89-.86S303.18,116.54,303.18,116.54Z" transform="translate(-36.63 -63.16)"/><path class="cls-13" d="M309.12,116.62s-.33.69.94.66a17,17,0,0,1,4,.92,3,3,0,0,0-1.94-1.7c-1.47-.38-2.92-.81-3.05-.61S309.12,116.62,309.12,116.62Z" transform="translate(-36.63 -63.16)"/><path class="cls-14" d="M306,120.6a6.55,6.55,0,0,0,.93,3.76,2.64,2.64,0,0,1,.71,1.21,1.14,1.14,0,0,1-.49,1,2,2,0,0,1-1.08.33" transform="translate(-36.63 -63.16)"/><path class="cls-11" d="M309.8,128.33a10.15,10.15,0,0,1-8.22.45s.94,4.38,4.86,3.56S309.8,128.33,309.8,128.33Z" transform="translate(-36.63 -63.16)"/><path class="cls-12" d="M275.62,161.31S240,150.76,237.25,143.05,231.81,93.19,230,87.3s-6-16.81-3.5-18.86c6.29-5.1,6.22-4.71,8-.63s3.17,7.71,3.17,7.71,0-5.89,1.25-6c2.7-.3,1.6,1.68,1.93,13.28.1,3.9,6.34,49,11.78,50.76S273.51,139,276.23,139,275.62,161.31,275.62,161.31Z" transform="translate(-36.63 -63.16)"/><path class="cls-12" d="M314.94,159.79s35.66-10.56,38.38-18.26,5.44-49.86,7.25-55.75,6-16.81,3.5-18.86c-6.3-5.1-6.22-4.71-8-.63s-3.17,7.7-3.17,7.7,0-5.88-1.25-6c-2.7-.3-1.61,1.68-1.93,13.28-.11,3.89-6.34,48.95-11.78,50.76s-20.85,5.44-23.57,5.44S314.94,159.79,314.94,159.79Z" transform="translate(-36.63 -63.16)"/><path class="cls-12" d="M277.59,202l-.45,13.6s29.46.46,36.26-2.26a17.52,17.52,0,0,0,2.72-14.51Z" transform="translate(-36.63 -63.16)"/><path class="cls-15" d="M358.27,255.91c-2.27-7.25-42.93-46.45-42.93-46.45l-38,2.83s-5.19,16.88-2,26,20.4,47.59,20.4,47.59-8.16,16.77-9.52,29S283.93,352,283.93,352l10.43.46s19.49-55.75,22.66-67.09c1.2-4.27.65-15.59-.49-28l16.36,14.44c-6.35,10.42-14.05,43.51-14.05,43.51,4.53,5.89,14.5,3.17,14.5,3.17S360.53,263.16,358.27,255.91Z" transform="translate(-36.63 -63.16)"/><path class="cls-16" d="M286.65,137.61,276.23,139s-.45,19.95-2.27,22.21-1.36,15.41-.45,18.13-2.72,24.93-2.72,24.93,30.71,10.52,52.46-3.08c0,0-4.41-27.29-3.51-30.91s1.4-11.69,1.4-11.69l-6.44-21.37-8.78.92s5.21,16.27-6.57,17.63S286.65,137.61,286.65,137.61Z" transform="translate(-36.63 -63.16)"/><path class="cls-13" d="M305.15,112a18.88,18.88,0,0,1-5.5,1.42c-1.87.36-3.83,1-4.92,2.6-2.29,3.28.43,8.62-2.4,11.44-.57.58-1.32,1-1.84,1.58-1.23,1.46-.82,3.62-.93,5.52-.21,3.47-2.41,6.6-5.21,8.66a29.3,29.3,0,0,1-9.5,4.16,12.14,12.14,0,0,1-5,.66,11.33,11.33,0,0,1-5.44-2.87,46.26,46.26,0,0,1-8.82-9.66,2.64,2.64,0,0,1-.65-2.2c.33-1,1.57-1.22,2.6-1.26a27.72,27.72,0,0,1,6.16.51,15.74,15.74,0,0,0,5.34.63c1.79-.26,3.59-1.61,3.62-3.41,0-1.53-1.16-2.77-1.75-4.18a5.64,5.64,0,0,1,.86-5.7,24.83,24.83,0,0,1,3-2.57c3.13-2.73,4.23-7.07,6.5-10.55,3.48-5.33,9.77-8.46,16.12-9a15.75,15.75,0,0,1,5.17.33c5,1.3,8.44,4.19,10.06,9.15a19.84,19.84,0,0,1,.75,6.44c.06-.39-5.15-5.48-5.71-6A4.64,4.64,0,0,1,305.15,112Z" transform="translate(-36.63 -63.16)"/><path class="cls-2" d="M328.89,325.46s10,13.18,9.72,16.19-6,.14-11.51-4.24-9.32-5.13-10.66-6.54,3.41-9.71,3.41-9.71Z" transform="translate(-36.63 -63.16)"/><path class="cls-2" d="M293.52,357.48s13.33,7.66,14.24,10.55-5.44,2.49-12.25.65-10.6-1-12.38-1.81.49-9.82.49-9.82Z" transform="translate(-36.63 -63.16)"/><polygon class="cls-7" points="243.52 92.89 244.56 94.99 246.88 95.32 245.2 96.96 245.6 99.27 243.52 98.18 241.45 99.27 241.84 96.96 240.17 95.32 242.49 94.99 243.52 92.89"/><polygon class="cls-7" points="247.16 108.98 248.2 111.08 250.51 111.42 248.84 113.05 249.23 115.36 247.16 114.27 245.09 115.36 245.48 113.05 243.81 111.42 246.12 111.08 247.16 108.98"/><polygon class="cls-7" points="264.95 99.04 265.99 101.14 268.31 101.48 266.63 103.12 267.03 105.42 264.95 104.33 262.88 105.42 263.28 103.12 261.6 101.48 263.92 101.14 264.95 99.04"/><polygon class="cls-7" points="276.51 84.25 277.54 86.36 279.86 86.69 278.18 88.33 278.58 90.64 276.51 89.55 274.43 90.64 274.83 88.33 273.15 86.69 275.47 86.36 276.51 84.25"/><polygon class="cls-7" points="278.82 112.91 279.85 115.01 282.17 115.34 280.5 116.98 280.89 119.29 278.82 118.2 276.74 119.29 277.14 116.98 275.46 115.34 277.78 115.01 278.82 112.91"/><polygon class="cls-7" points="272.81 132.09 273.85 134.19 276.16 134.53 274.49 136.16 274.88 138.47 272.81 137.38 270.74 138.47 271.13 136.16 269.45 134.53 271.77 134.19 272.81 132.09"/><polygon class="cls-7" points="243.23 132.78 244.27 134.88 246.59 135.22 244.91 136.85 245.31 139.16 243.23 138.07 241.16 139.16 241.55 136.85 239.88 135.22 242.19 134.88 243.23 132.78"/><polygon class="cls-7" points="260.56 119.15 261.6 121.25 263.92 121.58 262.24 123.22 262.64 125.53 260.56 124.44 258.49 125.53 258.88 123.22 257.21 121.58 259.53 121.25 260.56 119.15"/><polygon class="cls-12" points="580.56 302.72 584.42 310.67 575.55 314.5 570.38 305.93 580.56 302.72"/><path class="cls-2" d="M611.37,376.53s-9.69,11.94-9.5,15,6,.36,11.67-3.81,9.51-4.77,10.9-6.13-4-9-4-9Z" transform="translate(-36.63 -63.16)"/><polygon class="cls-12" points="649.67 236.59 656.02 230.44 662.41 237.69 655.88 245.26 649.67 236.59"/><path class="cls-2" d="M698.22,302s14.37,5.5,17.18,4.39-1.5-5.8-7.23-9.91-7.5-7.56-9.22-8.47-7.31,6.59-7.31,6.59Z" transform="translate(-36.63 -63.16)"/><path class="cls-17" d="M615.46,149.79c-4.33,2.29-9.14,5.21-10,10-.39,2.25.19,4.55.42,6.82s0,4.82-1.63,6.42c-1.88,1.85-4.86,1.78-7.3,2.75-3.64,1.45-5.89,5.19-7,9-1.63,5.48-1.11,12,3,16,3.14,3.06,7.7,4.05,12,4.78,4.83.83,9.78,1.5,14.61.69s9.6-3.29,12.08-7.51c3.67-6.23,1.54-14.08,1.64-21.31.06-4.54,1-9.26-.57-13.51-1.68-4.44-5.82-7.42-9.86-9.91" transform="translate(-36.63 -63.16)"/><path class="cls-12" d="M623.61,191.3s-2.51-4.92-2.19-8.52c0,0-2.93,1.8-5.87-3.26s-6.37-25.3-2.61-27.91,11.75-7.84,21.87-.66,3.1,25.63,2.29,28.57,1.19,10,1.19,10l-7.78.78Z" transform="translate(-36.63 -63.16)"/><path class="cls-9" d="M612.26,170a2.74,2.74,0,0,1,2.27-1.73,2.13,2.13,0,0,1,2.2,1.64" transform="translate(-36.63 -63.16)"/><path class="cls-9" d="M622.49,169.24a2.72,2.72,0,0,1,2.06-1.79,2.76,2.76,0,0,1,2.57.94" transform="translate(-36.63 -63.16)"/><path class="cls-18" d="M620.61,163.92s-.26,1.19,1.34.73,5.27.15,5.27.15a3.69,3.69,0,0,0-2.83-2c-1.94-.12-3.87-.34-4,0A2.4,2.4,0,0,0,620.61,163.92Z" transform="translate(-36.63 -63.16)"/><path class="cls-18" d="M615.72,164.33s.53,1.06-.86,1-4.13,1.29-4.13,1.29.18-2,1.68-2.52,3-1.16,3.16-.84A2.65,2.65,0,0,1,615.72,164.33Z" transform="translate(-36.63 -63.16)"/><path class="cls-19" d="M618.67,168.31a6.58,6.58,0,0,1-.59,3.84,2.58,2.58,0,0,0-.6,1.27,1.13,1.13,0,0,0,.57.93,2,2,0,0,0,1.11.24" transform="translate(-36.63 -63.16)"/><path class="cls-11" d="M615.55,176.35a10.15,10.15,0,0,0,8.23-.27s-.56,4.44-4.54,4S615.55,176.35,615.55,176.35Z" transform="translate(-36.63 -63.16)"/><path class="cls-12" d="M545.54,135.49c1.75-5.22,3.74-7.69,6.55-2.62s6.37,9.16,6.53,4.49l.16-4.67s2-2.46,2.9,3.26c.71,4.46,2,14.09,3.7,16.27-4.14,1.88-7.73,2.23-11.52,5.12C549.56,149,543.81,140.67,545.54,135.49Z" transform="translate(-36.63 -63.16)"/><path class="cls-12" d="M715.68,123.54c-1.75-5.22-3.74-7.68-6.56-2.62s-6.36,9.17-6.52,4.49l-.16-4.67s-2-2.46-2.9,3.26c-.72,4.46-2,14.09-3.7,16.28,4.13,1.88,7.73,2.22,11.52,5.12C711.66,137.09,717.41,128.72,715.68,123.54Z" transform="translate(-36.63 -63.16)"/><path class="cls-20" d="M661.15,253.31s7.62,16.53,4.23,30.93-13.13,36-13.13,36,30.5-21.61,33.47-22.88,11.43,9.74,8.89,13.56c0,0-46.6,50-53.37,49.13s-21.18-3.38-19.91-17.36,6.77-53.8,6.77-53.8-25.41,25.41-33,27.11c0,0,11,11.44,16.1,22.87a131.21,131.21,0,0,1,7.63,25S612,374,603.54,369.81c0,0-37.71-46.18-40.67-55.92s20.33-28,24.57-31.35,30.92-26.68,30.92-26.68S628.53,265.18,661.15,253.31Z" transform="translate(-36.63 -63.16)"/><path class="cls-21" d="M658.54,217.94s12.08,31.36,8.49,35.6-9.15,1.64-13.07,3.27-19.59,6.21-26.45,4.25-11.11-.66-12.09-6.54,2-7.51.33-14.37-4.58-17.64-4.58-17.64-33.64-5.88-46.71-31-15-35.61-15-35.61,14.37-8.16,18.61-7.18c0,0,5.23,16,13.4,27.11s26.46,16.33,30.38,16.33h8.82a19.61,19.61,0,0,1-1.31-6.2c0-2.94,12.74-2.94,17.64-3.92s4.9,6.53,5.88,7.18,10.78-7.18,16.66-7.51,15.68-3.59,23.52-20.91,5.55-23.51,9.47-23.84,20.58,5.22,20.91,7.18-5.56,28.1-13.07,40.51S658.54,217.94,658.54,217.94Z" transform="translate(-36.63 -63.16)"/><path class="cls-17" d="M620.18,158.27c1.52-.25,3-.86,4.5-1s3.3.25,4.05,1.51c1.49,2.49-1.78,6.48.73,8.11,1,.67,2.48.37,3.64.84a3.67,3.67,0,0,1,1.9,3.86,31.25,31.25,0,0,1-1.25,4.39c-1.23,4.7,1.2,9.88,5.39,12.74s9.8,3.52,14.83,2.36a28,28,0,0,0,13.06-7.5c2.23-2.17,4.21-4.73,4.8-7.69a7.36,7.36,0,0,0-3.3-7.9,10,10,0,0,0-5.31-1,3.42,3.42,0,0,1-1.53-.13,2.41,2.41,0,0,1-1.16-1.29c-.94-1.94-1.07-4.13-1.65-6.2s-1.81-4.2-4-4.88c-3-.95-6.11,1.3-9.28,1.27-4.4-.05-7.23-4.2-10.66-6.79-5.39-4.05-17.33-2.38-23.06.9C605.8,153.39,612.73,159.54,620.18,158.27Z" transform="translate(-36.63 -63.16)"/><polygon class="cls-3" points="28.85 246.63 19.56 243.07 16.14 253.39 26.24 258.35 28.85 246.63"/><path class="cls-2" d="M54.11,317.35s-12.45,12-15.86,12.11-1-6.66,3.13-13.45,4.43-11.13,5.82-12.83,10.47,3.6,10.47,3.6Z" transform="translate(-36.63 -63.16)"/><polygon class="cls-3" points="122.73 331.57 118.35 340.5 128.32 344.84 134.16 335.23 122.73 331.57"/><path class="cls-2" d="M165.87,406.73s10.85,13.48,10.63,16.89-6.73.39-13.12-4.33-10.68-5.41-12.25-7,4.53-10.1,4.53-10.1Z" transform="translate(-36.63 -63.16)"/><path class="cls-3" d="M255.29,174.42c-4.86,3.15-9.92,5.11-7.87.91l2.05-4.2s-.6-3.11-4.09,1.51c-2.72,3.61-6.88,9.21-9.1,11.45,0,0-24.31,27.27-32.91,27.27s-29.41-17-29.41-17V215s20.44,12.36,29.89,13.22c9,.82,37.71-31.44,40.37-34.46,7.67-5.28,14.73-8.61,15.63-14S260.15,171.27,255.29,174.42Z" transform="translate(-36.63 -63.16)"/><path class="cls-3" d="M103.09,121c1.07,5.7,3.13,10.71,4.76,6.33l1.64-4.38s2.67-1.7,1.72,4c-.74,4.46-1.94,11.33-2,14.48,0,0-3,36.41,2.9,42.64s32.55,9.65,32.55,9.65l-14.95,14.21s-23-6.31-30.18-12.57c-6.8-6-3.18-49-2.83-53-1.44-9.2-3.9-16.61-.62-21S102,115.28,103.09,121Z" transform="translate(-36.63 -63.16)"/><path class="cls-3" d="M165.41,190.91s-2.16-.44-2.81-4c0,0,3.09,1.52,5.56-3.78s4.1-25.77.12-28-12.4-6.76-21.84,1.29-.81,25.8.26,28.66-3.26,5.11-3.26,5.11l-2.74,18.57c.79,1.81,25.63,4,26.45,2.18Z" transform="translate(-36.63 -63.16)"/><path class="cls-9" d="M170.59,173.36a2.74,2.74,0,0,0-2.41-1.52,2.13,2.13,0,0,0-2.05,1.83" transform="translate(-36.63 -63.16)"/><path class="cls-9" d="M160.34,173.53a2.69,2.69,0,0,0-4.69-.43" transform="translate(-36.63 -63.16)"/><path class="cls-22" d="M161.27,168.21s.38.69-1.23.76a27,27,0,0,0-5.12,1.26,4,4,0,0,1,2.55-1.92c1.87-.5,3.73-1.07,3.88-.86S161.27,168.21,161.27,168.21Z" transform="translate(-36.63 -63.16)"/><path class="cls-22" d="M167.2,168.29s-.32.69,1,.66a17.17,17.17,0,0,1,4,.92,3,3,0,0,0-1.94-1.7c-1.47-.38-2.92-.81-3.05-.61S167.2,168.29,167.2,168.29Z" transform="translate(-36.63 -63.16)"/><path class="cls-23" d="M164.06,172.27A6.58,6.58,0,0,0,165,176c.29.38.68.73.72,1.2a1.15,1.15,0,0,1-.49,1,2,2,0,0,1-1.08.33" transform="translate(-36.63 -63.16)"/><path class="cls-11" d="M167.88,180a10.14,10.14,0,0,1-8.22.45s1,4.38,4.87,3.56S167.88,180,167.88,180Z" transform="translate(-36.63 -63.16)"/><path class="cls-16" d="M178.62,271.49s27.11,51.11,27.11,65.42-34.34,65.24-34.34,65.24L153.08,397s15.45-44.07,17.16-51.51-13.17-44.2-13.17-44.2-20,39-29.18,43.63-69.25-20.6-69.25-20.6L64.37,306s44.07,13.17,49.22,8S128,269.84,128,269.84Z" transform="translate(-36.63 -63.16)"/><path class="cls-17" d="M164.12,189.92c2-.49,9.1,3.52,14.52,6s13.8,8.37,13.8,8.37.55,16.6-4.87,19.56l-8.36-3.77c-.13.07-4.84,12.67-4.62,29.33.11,7.54,5.13,23.22,5.13,23.22s-31.63,8.05-51.84-3.78c0,0,1.42-48.8.93-52.25s-13.8-9.36-13.8-9.36-2.41-13.29,5-21.18l14,2.23s8.94,1,10.42,1c0,0-1.77,11.08,10.06,14S164.12,189.92,164.12,189.92Z" transform="translate(-36.63 -63.16)"/><path class="cls-22" d="M173.22,159.21c-.52-2.12-2.2-3.67-3.8-5.06-2-1.77-4.34-3.59-7-3.62-1.56,0-3.08.61-4.64.57-1.16,0-2.29-.43-3.44-.47-3.87-.17-7.13,3.48-10.71,4.59a2.68,2.68,0,0,0-1.84,2.34,2.93,2.93,0,0,1-.23,1c-.48,1.11-1.36,2.05-1.57,3.26a12.46,12.46,0,0,0,.06,2.36c.1,3.09-2,6-1.43,9.08a14.56,14.56,0,0,0,1,2.71c.9,2.24,1.46,4.72,3.06,6.47a4.82,4.82,0,0,0,2.24,1.34c2,.53,2.12.42,2.74-1.63l.89-6.5a6.57,6.57,0,0,0-.26-.89,2.17,2.17,0,0,1-1.51-.54,3.27,3.27,0,0,1-.85-2.73,3.49,3.49,0,0,1,1.25-2.54,1.6,1.6,0,0,1,1.68-.08h0a2.57,2.57,0,0,0,2.51-1,10.07,10.07,0,0,0,1.21-2.75,2.76,2.76,0,0,1,3.69-1.83c2.4,1,4.68,1.58,7.6.1a5.69,5.69,0,0,1,1.88-.78c1.62-.19,3,1.44,4.64,1.46C172.44,164,173.74,161.32,173.22,159.21Z" transform="translate(-36.63 -63.16)"/></svg>