<?xml version="1.0" encoding="utf-8"?>
<!-- Generator: Adobe Illustrator 23.0.6, SVG Export Plug-In . SVG Version: 6.00 Build 0)  -->
<svg version="1.1" id="Warstwa_1" xmlns="http://www.w3.org/2000/svg" xmlns:xlink="http://www.w3.org/1999/xlink" x="0px" y="0px"
	 viewBox="0 0 192.3 97.8" style="enable-background:new 0 0 192.3 97.8;" xml:space="preserve">
<style type="text/css">
	.st0{fill:url(#SVGID_1_);}
	.st1{fill:#28D0B9;}
	.st2{fill:none;}
	.st3{font-family:'GillSans-LightItalic';}
	.st4{font-size:12px;}
	.st5{font-size:14px;}
</style>
<title>main-page-text-bck-yellow1</title>
<linearGradient id="SVGID_1_" gradientUnits="userSpaceOnUse" x1="98.6185" y1="2.2047" x2="98.6185" y2="99.9823" gradientTransform="matrix(1 0 0 -1 -1.15 99.99)">
	<stop  offset="0" style="stop-color:#FFF1C4"/>
	<stop  offset="0.4" style="stop-color:#FFE38B"/>
	<stop  offset="1" style="stop-color:#FFCD2F"/>
</linearGradient>
<path class="st0" d="M193.6,88c-19.1-5.4-38.9-7.7-58.7-6.7c-9,0.5-15.5,1.5-27.9,3.6c-47.6,8-79.2,20-86.6,7.4
	c-3.9-7.2-7.2-14.8-9.9-22.5c-0.2-0.6-0.5-1.3-0.8-2.3c-2.8-8.8-4.2-16.6-6.3-30.7C1.2,21.9,0.9,19.5,1.8,15.8
	c1-3.9,2.9-7.5,5.5-10.4c3-3,6.9-4.9,11.2-5.3c9.6-1.1,42.3,6,60.1,8.4c6,0.8,11,1.2,16.8,1.7c14.3,1.1,25.9,1.2,30,1.2
	c26.6-0.1,59.5-9.1,67.1-11.3L193.6,88z"/>
<path class="st1" d="M49,92.4"/>
<rect x="12.4" y="33" class="st2" width="179.9" height="31.7"/>
<text transform="matrix(1 0 0 1 18.2659 42.5824)"><tspan x="0" y="0" class="st3 st4"> </tspan><tspan x="3.3" y="0" class="st3 st5">Ucz się efektywniej dzięki pracy </tspan><tspan x="21.8" y="16.8" class="st3 st5">w parze lub gronie osób</tspan></text>
</svg>
