<svg id="OBJECTS" xmlns="http://www.w3.org/2000/svg" viewBox="0 0 676.1 424"><defs><style>.cls-1,.cls-28{fill:#1b73f0;}.cls-1{opacity:0.2;}.cls-2{fill:#3ab397;}.cls-3{fill:#298c72;}.cls-4{fill:#ff9700;}.cls-15,.cls-36,.cls-5{fill:#d38c0d;}.cls-5{opacity:0.22;}.cls-6{fill:#5cccae;}.cls-7{fill:#ffb000;}.cls-8{opacity:0.54;}.cls-18,.cls-29,.cls-42,.cls-43,.cls-44,.cls-45,.cls-9{fill:none;}.cls-9{stroke:#ff9700;stroke-width:0.82px;}.cls-18,.cls-29,.cls-9{stroke-miterlimit:10;}.cls-10{fill:#fcbd8a;}.cls-11{fill:#c18b3d;}.cls-12{fill:#eaa471;}.cls-13{fill:#02132b;}.cls-14{fill:#042956;}.cls-15{opacity:0.15;}.cls-16{fill:#fff;}.cls-17{fill:#ff5d00;}.cls-18{stroke:#ff5d00;stroke-width:1.65px;}.cls-19{fill:#dd4d05;}.cls-20{fill:#f2f2f2;}.cls-21{fill:#5abfa2;}.cls-22{fill:#0a3e89;opacity:0.34;}.cls-23{fill:#001a49;}.cls-24{fill:#edab7a;}.cls-25{fill:#c9dfff;}.cls-26{fill:#b6d7ff;}.cls-27{fill:#606060;}.cls-29{stroke:#2e53bc;stroke-width:3.37px;}.cls-30{fill:#eaa978;}.cls-31{fill:#eaac7d;}.cls-32{fill:#dd9a76;}.cls-33{fill:#ce8463;}.cls-34{fill:#a5cff9;}.cls-35{fill:#fcb4d2;}.cls-37{fill:#f4ab76;}.cls-38{fill:#e6e6e6;}.cls-39{fill:#54e8bd;}.cls-40{fill:#4fd3ad;}.cls-41{fill:#329b80;}.cls-42,.cls-43,.cls-44{stroke:#ffb000;stroke-linejoin:round;stroke-width:0.46px;}.cls-43{stroke-dasharray:1.86 1.86;}.cls-44{stroke-dasharray:1.83;}.cls-46{fill:#022b66;opacity:0.37;}</style></defs><title>2785835</title><path class="cls-1" d="M727.1,433.16c0,8.75-72.1,15.84-161.05,15.84s-161-7.09-161-15.84,72.11-15.84,161-15.84S727.1,424.41,727.1,433.16Z" transform="translate(-51 -32)"/><path class="cls-2" d="M669.23,427.51l-29,3.27a186.44,186.44,0,0,1-23.86,1.14c-19.8-.33-47.16-6.71-56.21-4.72-36.84,8.08-106.38,6.45-106.38,6.45l1.44-12.32,1-8.75s9.5-.42,22.33-1.15c23.4-1.33,57.87-3.69,66-6.36,2.13-.69,6.2-1.74,11.49-3,25.9-6.17,81-17.37,81-17.37Z" transform="translate(-51 -32)"/><path class="cls-3" d="M556.1,402.07c-2,1.45-4.34,2.62-5.77,3.54a87.36,87.36,0,0,1-14.14,7.87c-5.41,2.2-11.2,3.3-16.6,5.51-5.1,2.09-9.77,5.14-14.93,7.06-5.68,2.13-11.79,2.83-17.84,3.28a237.78,237.78,0,0,1-31.47.23,9.42,9.42,0,0,1-1-.11l.94-8.12c5.55-3.57,11.83-5.9,18.08-8.08,1.76-.62,3.51-1.22,5.27-1.82,23.4-1.33,57.87-3.69,66-6.36C546.74,404.38,550.81,403.33,556.1,402.07Z" transform="translate(-51 -32)"/><path class="cls-4" d="M648.05,343.18c.34,6.09-2.6,11.9-6.25,16.78s-8.06,9.19-11.38,14.3c-1.2,1.85-2.23,4.39-.88,6.14a4.6,4.6,0,0,0,2.78,1.47c4,.8,8.11-.88,11.7-2.87,9-5,16.75-12.26,21.43-21.36A28.1,28.1,0,0,0,669,344.2c-.13-4.68-2-9.44-5.71-12.33-3.29-2.6-9.54-3.83-13.4-1.59C645.31,332.92,647.81,339,648.05,343.18Z" transform="translate(-51 -32)"/><path class="cls-5" d="M654.5,345c-2.38,5.1-2.17,11.11-4.55,16.2-2.91,6.24-9.24,10.21-12.78,16.1a9.89,9.89,0,0,0-1.6,4.69,4.8,4.8,0,0,0,2.13,4.27,6.33,6.33,0,0,0,3.07.67c6.23.09,12.1-3,17-6.78,10.21-7.92,17.59-19.84,18.66-32.72.36-4.34-.82-15.45-7.18-15.32C664,332.17,656.54,340.59,654.5,345Z" transform="translate(-51 -32)"/><path class="cls-6" d="M649.51,385.48s-63.93-30.72-75.64-29.75-92.25,49.11-92.25,49.11l17.1,14s54-19,72.43-24.05c15.46-4.26,78.35,31.16,92.35,32.68s37.75-8.87,37.75-8.87Z" transform="translate(-51 -32)"/><path class="cls-7" d="M608.47,364.69l-7.08-1.84a2,2,0,0,0-2.22,3.11,30.83,30.83,0,0,0,6.62,6.83c10,8.07,21.27,14.59,33.59,18.11,2.24.65,1.17-11.92.88-12.94-.88-3.12-2.39-7.79-5.6-9.26-2.87-1.32-7.21-.45-10.27-.75A102,102,0,0,1,608.47,364.69Z" transform="translate(-51 -32)"/><g class="cls-8"><path class="cls-5" d="M618.44,373.88A78.08,78.08,0,0,0,630.25,368c-2,0-4.14.17-5.86,0-.81-.08-1.63-.18-2.44-.3C620.05,369.3,618.39,371.41,618.44,373.88Z" transform="translate(-51 -32)"/><path class="cls-5" d="M640.26,378c-.88-3.12-2.39-7.79-5.6-9.26a7.26,7.26,0,0,0-1.89-.55c-1.87,3.32-4,6.49-7.2,8.55-1,.65-2.21,1.44-2.11,2.62.07.95,1,1.57,1.53,2.35a4.46,4.46,0,0,1,.39,3.79,83.49,83.49,0,0,0,14,5.44C641.62,391.55,640.55,379,640.26,378Z" transform="translate(-51 -32)"/></g><path class="cls-7" d="M712.33,324.1c2,10.47.35,21.27-1.65,31.74s-4.38,21-3.88,31.66c.19,4,.79,8,.58,12a38.45,38.45,0,0,1-2.65,11.65c-2.44,6.4-6.43,12.6-12.54,15.7a30.88,30.88,0,0,1-7.77,2.47,78,78,0,0,1-58.66-11.86c-4.92-3.36-9.69-7.38-14.83-10.32a6.86,6.86,0,0,1-.14-11.87A105.13,105.13,0,0,1,635,384.69c3.89-1.14,7.93-2.09,11.29-4.35,7.48-5,9.65-14.87,10.94-23.78s2.74-18.71,9.54-24.6c3.15-2.72,21.85-28.26,25.39-30.46,3.79-2.35,6.27-.31,9.37,2.47C707.33,309.14,710.9,316.56,712.33,324.1Z" transform="translate(-51 -32)"/><path class="cls-5" d="M689.58,413.76c-1.33,1.95-2.59,4.27-4.85,4.91-3,.86-6.25-1.78-9.26-.87-1.77.53-3,2.16-4.62,3-2.58,1.32-5.8.49-8.53,1.51-3.09,1.16-4.61,4.14-5.34,7.5a76.91,76.91,0,0,0,27.44-.47,30.88,30.88,0,0,0,7.77-2.47c6.11-3.1,10.1-9.3,12.54-15.7A42.24,42.24,0,0,0,707,403.3c-.9.16-1.78.31-2.63.5A24.24,24.24,0,0,0,689.58,413.76Z" transform="translate(-51 -32)"/><path class="cls-9" d="M610.94,403.37c10.08-7.43,23.5-8.8,34.08-15.5a39.27,39.27,0,0,0,17.16-24.53c.86-3.92,1.11-8,2.53-11.76,2-5.41,6.29-9.62,9.81-14.21a61.1,61.1,0,0,0,9.4-17.63c1.78-5.27,3-11,6.83-15" transform="translate(-51 -32)"/><path class="cls-5" d="M692.32,307.58c-3.38,2.2-5.36,6-7,9.67a106.73,106.73,0,0,0-6.47,21.66c-.77,4-1.36,8.06-2.77,11.88s-3.78,7.45-7.29,9.51c-4.27,2.51-9.6,2.38-14.44,1.33a11.94,11.94,0,0,0-3.4-.44c-4,.32-6.2,5.37-4.89,9.13s5,6.21,8.69,7.68a32.37,32.37,0,0,0,20.73,1,21.53,21.53,0,0,0,9.74-5.54c2.5-2.64,4-6,5.5-9.35q5.57-12.56,11.14-25.1c2.19-4.93,4.4-9.95,5.1-15.31C708.05,315.66,702.94,300.65,692.32,307.58Z" transform="translate(-51 -32)"/><path class="cls-10" d="M634.83,360.83s-2.25-1.27-5.75-6.14-6.84-6.4-9.25-9.08-5.91-6.56-5.26-2.91,5,7.62,1.89,7.26-13.19-10.18-15.06-9.75c-2.42.56,7.62,13,14.83,21.08s7.3,7.76,15,11.32S654.3,366.18,634.83,360.83Z" transform="translate(-51 -32)"/><path class="cls-11" d="M642.05,265.07c-.28,2,0,4.09-.82,5.92-1.16,2.59-4.38,4.25-4.45,7.09-.07,3.07,3.57,4.86,4.68,7.73,1.58,4-2.33,8.33-1.92,12.66a13.12,13.12,0,0,0,2.36,5.47c.2.32.45.68.83.73a1.35,1.35,0,0,0,1-.5c1.89-1.79,3.7-3.89,6.21-4.62,2.06-.6,4.26-.18,6.4-.09s4.56-.31,5.85-2c1-1.37,1.07-3.22,1-4.94q-.09-3.11-.36-6.18a24.21,24.21,0,0,0-1.41-6.92,27.49,27.49,0,0,0-4.43-6.76l-6.52-8.09C647.88,261.24,642.9,259.08,642.05,265.07Z" transform="translate(-51 -32)"/><path class="cls-10" d="M659.08,291.42s7.28,6.52,6.51,13.34c-1.13,10.08,18.46-6.13,18.46-6.13L669.1,280.42Z" transform="translate(-51 -32)"/><path class="cls-12" d="M663.62,297s5.23-.83,7.89-4.44c0,0,.13,4.31-6.2,8.55Z" transform="translate(-51 -32)"/><path class="cls-10" d="M658.21,258.86s-11.47,3.52-11.93,11.16,6.91,29.06,15.46,27.84S673.83,290,677,285.18C690.39,264.84,667.77,253,658.21,258.86Z" transform="translate(-51 -32)"/><path class="cls-13" d="M643.32,349.06c.31.87.76,1.86,1.66,2a2.29,2.29,0,0,0,1.88-.84c1.83-1.8,2.77-4.42,4.78-6a16.52,16.52,0,0,1,3.74-1.92A40,40,0,0,0,672,329.08a34.06,34.06,0,0,1,3.73-4.78,42.14,42.14,0,0,1,4.63-3.41,28.18,28.18,0,0,0,9.88-13,8.9,8.9,0,0,0,.67-4.89,6.71,6.71,0,0,0-5.24-4.78,13,13,0,0,0-7.33.91c-4.09,1.57-7.81,4.22-12.13,5-4.72.82-9.9-.68-14.21,1.43-6,2.95-10.19,13.53-12.1,19.65C637.4,333.17,640.69,341.62,643.32,349.06Z" transform="translate(-51 -32)"/><path class="cls-14" d="M666.19,303.33c2.23-.9,4.09-2.51,6-3.89a34.91,34.91,0,0,1,15-5.95c3.19-.46,7.32.11,8.27,3.19a6.11,6.11,0,0,1-1.22,5c-2.11,3.12-5.34,5.28-7.73,8.19a78.65,78.65,0,0,0-4.47,6.88,36.49,36.49,0,0,1-18.94,14.52c-4.39,1.45-9.24,2-13.61.51s-8.09-5.46-8.33-10.08c-.16-3.11,1.2-6.08,2.61-8.86s3.15-5.86,5.68-7.94C655.34,300.1,660.26,305.72,666.19,303.33Z" transform="translate(-51 -32)"/><path class="cls-4" d="M703.54,381.86c-3.56,3.94-7.56,7.67-12.44,9.77-5.72,2.45-12.14,2.45-18.36,2.27-17.63-.52-36.12-2.52-50.6-12.59a98.12,98.12,0,0,1,9.94-20.64,3.46,3.46,0,0,1,1.45-1.48,3.52,3.52,0,0,1,2.38.22c2.74.91,5.5,1.73,8.29,2.48q6.16,1.67,12.44,2.77,4.8.84,9.65,1.38c2.35.25,4.82.44,7-.41,4.45-1.73,6.17-6.7,7.1-11.57.19-.93.33-1.85.46-2.75s.29-1.95.45-2.92q1.81-11.61,4.52-23.05c1.4-5.93,3.15-12.13,7.54-16.35,7-6.7,11.81-5.71,18.61,6.2C717.68,325.14,713,371.38,703.54,381.86Z" transform="translate(-51 -32)"/><path class="cls-15" d="M685.53,363.53c-2.54,2.92-5.92,5-8.33,8.06-1.57,2-2.81,4.37-5.07,5.46-2.88,1.38-6.27.1-9.2-1.21-6.65-3-13.5-6.29-17.88-12.11a3.62,3.62,0,0,1-.85-1.84q6.16,1.67,12.44,2.77,4.8.84,9.65,1.38c2.35.25,4.82.44,7-.41,4.45-1.73,6.17-6.7,7.1-11.57.19-.93.33-1.85.46-2.75s.29-1.95.45-2.92C687.79,349.37,691,357.21,685.53,363.53Z" transform="translate(-51 -32)"/><path class="cls-13" d="M458,403.73c-3.05-1.56-5.09-4.82-8.35-5.85a3.21,3.21,0,0,0-2.16-.06c-1.44.6-1.67,2.52-1.55,4.07a28.5,28.5,0,0,0,20,24.57c2.33.67,5.71-.92,6.73,1.29.56,1.2-4.88,7.18-4.09,8.25,1.55,2.11,9.59-1.31,11.86-2.61l7.51-4.32c1.21-.7,9.6-7.12,10.38-8.29a7.31,7.31,0,0,0,.79-5.19c-.63-4.09-2.76-7.76-4.85-11.33-2.52-4.31-5.15-6.93-10.78-4.32C478.06,402.48,469.49,409.6,458,403.73Z" transform="translate(-51 -32)"/><path class="cls-13" d="M441.35,402.59a31.5,31.5,0,0,1-7.86-14.51c-.37-1.49-.86-3.25-2.31-3.76a3,3,0,0,0-3.14,1.11,8.25,8.25,0,0,0-1.39,3.24A78.92,78.92,0,0,0,424.17,408a16.79,16.79,0,0,0,.89,6.39c1.92,4.79,7.43,7.37,9.47,12.11a5.27,5.27,0,0,1,.49,2.89c-.29,1.77-6.1,3.4-5.78,5.17.39,2.09,7.25,2.66,9.37,2.76a62.9,62.9,0,0,0,13.22-.7c2.17-.34,4.52-.91,5.84-2.67,1.14-1.52,1.23-3.55,1.27-5.45.1-4.24,1.65-16-2.52-18.67-1.78-1.14-4.94-1-7-1.78A24.27,24.27,0,0,1,441.35,402.59Z" transform="translate(-51 -32)"/><polygon class="cls-16" points="532.93 286.81 535.76 284.53 544.83 295.51 567.16 289.23 567.32 293.16 542.65 299.05 532.93 286.81"/><polygon class="cls-17" points="545.87 297.82 567.32 293.16 598.61 321.57 576.69 327.07 545.87 297.82"/><line class="cls-18" x1="532.64" y1="286.94" x2="543.77" y2="300.17"/><path class="cls-19" d="M596.87,329.82a4.71,4.71,0,0,1-5.18.57L625,360.6l2.7-1.53Z" transform="translate(-51 -32)"/><polygon class="cls-20" points="567.16 289.23 598.94 317.91 598.61 321.57 567.32 293.16 567.16 289.23"/><path class="cls-11" d="M653,263.24c2.63.51,4.34,1.35,5.35,3.83.88,2.16,1,4.73,2.55,6.43,2.87,3.08,8.93,1.54,11.23,5.07,1.22,1.87.73,4.37-.12,6.44s-2.07,4.07-2.19,6.3c-.17,3,1.67,5.75,3.73,7.95.42.45,1,.92,1.57.67a1.78,1.78,0,0,0,.67-.76c1.86-3.09,5.83-4.32,9.44-4.17,2.77.12,6.06.71,7.9-1.37,1.37-1.56,1.22-4,2.26-5.77,1.83-3.21,6.52-3.41,9.13-6a2.27,2.27,0,0,0,.81-1.75c-.15-1.46-2.15-1.64-3.61-1.85a7.62,7.62,0,0,1-6.29-6.87c-.09-1.47.26-3-.12-4.39-.82-3-4.38-4.25-6.48-6.57-1.93-2.12-20.82-27.08-39.94-6.23-1.47,1.61-3.87,5.63-3.49,8C645.86,265.06,650.22,262.7,653,263.24Z" transform="translate(-51 -32)"/><path class="cls-10" d="M664.38,273.24s0-7,6-8.22,8,9,1.83,16.52S664.38,273.24,664.38,273.24Z" transform="translate(-51 -32)"/><path class="cls-1" d="M191,438.5c0,9.67-31.34,17.5-70,17.5s-70-7.83-70-17.5S82.34,421,121,421,191,428.84,191,438.5Z" transform="translate(-51 -32)"/><path class="cls-21" d="M163,304.35c-2.51,27.91,2.91,80.6-2.57,110.53,0,0-6.88,3.18-16.84,1.43S129.69,327,128.41,312.63s-6.39-44.62-8-51.72c-1.22-5.37.59-15.53-.92-20.17a3,3,0,0,0-5.42-.8c-2.39,3.65-.67,13-1,35.91-.54,33-5.82,50-9.84,66.55s-13,56.43-16.44,65.63c0,0-10.47,6.48-20.66.35,0,0,4.3-54.53,6.72-75.12s5.91-39.93,5.86-61.15c0-6.84-.52-14.57-1.15-22.37C76.41,236.46,75,223,75,213.38a58.34,58.34,0,0,1,.24-6c1.36-13.76,78.59,5,78.59,5C154,217.76,165.48,276.43,163,304.35Z" transform="translate(-51 -32)"/><path class="cls-22" d="M140.14,241.24c-14.55-8.15-40.9-22.06-55.16-17.43a31.54,31.54,0,0,1-9.53,1.42,117.17,117.17,0,0,1-.26-17.9c1.35-13.75,78.73,5.94,78.73,5.94.08,1.78,3.36,21.75,4.63,29.91C155.07,244.93,150.23,246.9,140.14,241.24Z" transform="translate(-51 -32)"/><path class="cls-22" d="M145.58,303.33c2-14.2,11.35-17,17.65-17.53a143.06,143.06,0,0,1-.26,18.55,288.93,288.93,0,0,0-.62,29C155.76,329.32,143.4,319.05,145.58,303.33Z" transform="translate(-51 -32)"/><path class="cls-22" d="M89.24,309c1.47-16.53,16.34-21.65,23.46-23.37a228.5,228.5,0,0,1-7.33,47.93C100.78,332.16,87.62,327.08,89.24,309Z" transform="translate(-51 -32)"/><path class="cls-23" d="M164.18,390s2.1-3.84-3-1.56-24.9,3-25.82,4.1-2.73,1.26-1.11,3.55,2.1,4.42,3,9.65-2.3,12.62-1.19,17-3.81,10.69,0,13,8.58,2.89,11.78,4.64,16.62,4.22,26.34,4,14.38-2.69,8.86-7.69-7.8-7.84-13.05-9.81-6.3-7.46-6.29-12.49-.77-3.94,0-9.08S164.18,390,164.18,390Z" transform="translate(-51 -32)"/><path class="cls-23" d="M65.88,382.68s-1.78-3.41,4.91-1,24.69,1.13,23.83,3.88-.47,8.91-2.25,11.19.35,4-1,8.39-2.51,11.46-.46,15.12,8.72,15.33,9.86,21.36-6.62,9.83-16.86,1.67-10.18-10.63-13.68-14.21-8.73-5-8.54-11.89,0-10.13,1.06-14.23,3.18-7.35,2.41-11.14S65.88,382.68,65.88,382.68Z" transform="translate(-51 -32)"/><path class="cls-22" d="M96.16,229.07a85.66,85.66,0,0,1-10.42,14,29.09,29.09,0,0,1-8.24,6.71C76.41,236.46,75,223,75,213.38a.07.07,0,0,1,0,0,3,3,0,0,1,2-.62,46,46,0,0,1,13.88,1.22c2.83.69,5.84,1.84,7.23,4.4C99.87,221.68,98.12,225.8,96.16,229.07Z" transform="translate(-51 -32)"/><path class="cls-10" d="M166.91,170.63a10.71,10.71,0,0,1-6.6,1.46,12,12,0,0,1-1.69-.22,38,38,0,0,1-8.07-2.86c-3.16-1.37-6.55-2.83-8.39-5.73a15.48,15.48,0,0,1-1.82-5.1,109.38,109.38,0,0,1-2.32-16.4c-.16-2.54-.2-5.22,1-7.48,2.58-5,9.59-5.19,13.3-1.31,3.3,3.44,2.7,11.37,3.26,15.76a13,13,0,0,0,.32,1.76,3.94,3.94,0,0,0,.59,1.26,6.36,6.36,0,0,0,1.81,1.57l6.66,4.46c2.11,1.41,4.38,3,5.11,5.46C170.84,166,169.32,169.08,166.91,170.63Z" transform="translate(-51 -32)"/><path class="cls-24" d="M166.91,170.63a10.71,10.71,0,0,1-6.6,1.46c-1.11-5.15-2.85-10.11-4.1-15.24a15.42,15.42,0,0,1-.55-5.31,7.21,7.21,0,0,1,.2-1,3.94,3.94,0,0,0,.59,1.26,6.36,6.36,0,0,0,1.81,1.57l6.66,4.46c2.11,1.41,4.38,3,5.11,5.46C170.84,166,169.32,169.08,166.91,170.63Z" transform="translate(-51 -32)"/><path class="cls-25" d="M145.54,130.33c.7,21.29,10.08,86,10.08,86C129.09,238.65,74,225.75,74,225.75l-.37-69.24,9.74-66.2c7.33-3.85,43.67-.48,43.67-.48s15.28-.33,20.41,6C154.94,105.12,156,138,156,138s-4.89,4.89-11.17,2.79" transform="translate(-51 -32)"/><path class="cls-26" d="M149.48,120.41l.41,9.8a5.58,5.58,0,0,1-.93,3.32l-.48.71a4,4,0,0,0-.68,2.43h0a6.51,6.51,0,0,1-1.3,4.17l-.36.48" transform="translate(-51 -32)"/><path class="cls-10" d="M67.77,173.94c1,2.51,2.32,5.11,4.62,6.57a9.18,9.18,0,0,0,7.45.76,18.24,18.24,0,0,0,6.58-3.94c10.79-9.4,15-24.1,22.79-36.12,3.1-4.8,6.78-9.18,10.15-13.8,1.88-2.56,3.71-5.34,4.1-8.5s-1.13-6.77-4.15-7.76c-1.19-.39-2.8-.62-3-1.85a2,2,0,0,1,.3-1.31c.74-1.29,2.13-2,3.21-3.07s1.88-2.72,1.06-4a2.71,2.71,0,0,0-3-.85,7.46,7.46,0,0,0-2.77,1.85c-4.89,4.55-9.39,10.13-10.21,16.76-.27,2.18-.14,4.44-.88,6.51a16.23,16.23,0,0,1-3.07,4.7C95,137,89.06,144.16,82,150.18a54.3,54.3,0,0,0,.84-14.89c-.24-3-.81-6.1-2.82-8.29-2.9-3.15-8.18-3.28-11.8-1-7.14,4.51-7.26,14.33-6.92,21.82C61.74,156.68,64.38,165.81,67.77,173.94Z" transform="translate(-51 -32)"/><path class="cls-25" d="M97,88.53s-31.85-1.15-34.21,22.72c-1.4,14.11-5.3,35.9-3.74,39.65,0,0,17.11-2.65,27.54-5.93,0,0,.33-12.73-1.84-17.76" transform="translate(-51 -32)"/><path class="cls-26" d="M77.31,104.89c3.7,5.34,7.54,11.1,7.62,17.6a36.22,36.22,0,0,0,0,3.9c.24,2,1.2,3.89,1.77,5.86,1,3.51.79,7.24.55,10.89a2.39,2.39,0,0,1-2.2,2.64" transform="translate(-51 -32)"/><path class="cls-10" d="M144.33,50.59c.12,1,0,19.46-4.3,25.87s-7.91,8.21-15.62,6.15l-.69,10.86s-4.56,8.59-15.4,4a14.53,14.53,0,0,1-8.44-9.11L113.2,45.85Z" transform="translate(-51 -32)"/><path class="cls-23" d="M103.05,74c.16,1.29,7.4.31,11.07-2.59S118.73,69,118.6,67s-1.95-1-3.1-4.3-.74-8.26,3.57-7.56,4,4,6,2.55.67-6.36,2.54-7,3.12-3.93,10.44.31,13.38,8.86,14.68,3.18-4.69-5.85-.46-7.69.27-7-7.62-6.87-16.5-12.44-30-5.46S99.59,47,103.05,74Z" transform="translate(-51 -32)"/><path class="cls-10" d="M124.41,82.61a18,18,0,0,1-9-3.8c-3.79-3,.87,4.67,3.7,6.12A23.85,23.85,0,0,1,124,88.22Z" transform="translate(-51 -32)"/><path class="cls-10" d="M125.39,59.41S122.81,53,116.77,54s-4.15,11.31,4.33,16S125.39,59.41,125.39,59.41Z" transform="translate(-51 -32)"/><path class="cls-26" d="M101.34,82.75c-1.51.29-4.19,3.68-4.68,6.48L96,93a3.25,3.25,0,0,0,.9,2.86l.65.65a3.67,3.67,0,0,1,.5.62l6.26,4.92,3.61-1.21a4.59,4.59,0,0,1,1.37-.24l4.47-.15a.24.24,0,0,0,0-.47c-11.21-3-13.19-10.82-13.19-10.82S101.81,82.66,101.34,82.75Z" transform="translate(-51 -32)"/><path class="cls-26" d="M116.82,100.09a.29.29,0,0,0,.37.43,26.52,26.52,0,0,0,8-6.06,5.25,5.25,0,0,0,1.6-3,3.44,3.44,0,0,0-.18-1.14c-.48-2-.64-3.73-2.32-4.88-.23,1.69.27,6.48-3.52,9.39C119.08,96.19,118.13,98.34,116.82,100.09Z" transform="translate(-51 -32)"/><polygon class="cls-27" points="156.74 114.5 152.5 89.62 105.08 109.14 105.51 119.6 156.74 114.5"/><polygon class="cls-16" points="155.27 113.52 150.78 89.16 106.09 107.48 107.22 118.83 155.27 113.52"/><path class="cls-6" d="M199.37,150.62l8.37-4.12s-16.07-10.83-17.16-10.23-47.2,21.2-47.2,21.2l19,10.29Z" transform="translate(-51 -32)"/><path class="cls-10" d="M179.22,160.66a4.92,4.92,0,0,1,2.24.52,1.78,1.78,0,0,1,.92,1.95c-.34,1-1.67,1.21-2.56,1.8a6.14,6.14,0,0,0-2,3.11c-1.15,2.86-2.83,5.78-5.66,7a10.75,10.75,0,0,1-4.54.7c-2.39-.07-5.08-.75-6.24-2.85a2.22,2.22,0,0,1-.23-2,2.36,2.36,0,0,1,2.15-1.11c.85,0,1.7.18,2.54.08a1.15,1.15,0,0,0,.6-.22c.38-.34.23-.95.33-1.45.28-1.32,2.25-1.57,2.77-2.82a6.36,6.36,0,0,0,0-2.42C169.58,158.68,176.72,160.48,179.22,160.66Z" transform="translate(-51 -32)"/><path class="cls-28" d="M334.26,326s1.65-6.27-2.64-10.23-70.32-15.1-70.32-15.1L247.5,325Z" transform="translate(-51 -32)"/><line class="cls-29" x1="281.58" y1="294.01" x2="292.02" y2="410.77"/><polyline class="cls-29" points="205.18 412 212.31 290.52 206.91 287.55 195.17 397.36"/><path class="cls-29" d="M335.75,357.75s5,14.64-1.54,16.36-67.33,4.49-76.3-1.38S253.74,352,253.74,352" transform="translate(-51 -32)"/><polyline class="cls-29" points="282.52 311.37 211.05 309.99 204.67 303.63"/><path class="cls-10" d="M288.6,189.06s1.19,4.57.59,7.15-10.61,3.71-10.61,3.71l23.93,32.94,16.67-30.29-4.58-10.08-3.37-.45-1.58-10.92Z" transform="translate(-51 -32)"/><path class="cls-30" d="M296.3,230.16a10,10,0,0,0,6.35-.6,28.63,28.63,0,0,0,15.92-15,26.93,26.93,0,0,0,1.9-5.86c.13-.62.23-1.26.31-1.89a21.15,21.15,0,0,0,.1-4.9h0c-.06-.57-.15-1.12-.26-1.67a13.58,13.58,0,0,0-1.4-3.85,12.23,12.23,0,0,0-7.54-5.59,5.92,5.92,0,0,0-3.24,1.88,7,7,0,0,0-1.17,3.64,23.81,23.81,0,0,0,.53,7.94,1.37,1.37,0,0,0,2.61.2c.29-.74,2.45.54,2.2,1.85a18.47,18.47,0,0,1-3.53,7.07c-1.88,2.64-3.9,5.27-5.69,8a7.28,7.28,0,0,1-9.58,2.48,3.7,3.7,0,0,0-.74,1.4C292.54,227.32,294.24,229.5,296.3,230.16Z" transform="translate(-51 -32)"/><path class="cls-31" d="M287,187.48l19-.92a7.45,7.45,0,0,1-1.29,9.94C299.62,201.31,287,187.48,287,187.48Z" transform="translate(-51 -32)"/><path class="cls-10" d="M298.15,152.75c-.74.13-16.09.31-17.28,10.76s0,31.32,10.15,30.47,14.36-4.09,17.36-7.88,9.12-9.52,9-15.45S311.26,150.47,298.15,152.75Z" transform="translate(-51 -32)"/><path class="cls-23" d="M297.37,161.83a8.23,8.23,0,0,0,3.26,1.26,9.15,9.15,0,0,1,5.92,5.8,3.31,3.31,0,0,1,4.65-1.46,4.28,4.28,0,0,1,1.68,4.88,6.12,6.12,0,0,1-3.85,3.74c-.8.29-1.73.51-2.15,1.24a3,3,0,0,0,.32,2.71l2.29,4.89a1.35,1.35,0,0,0,.39.55c.4.27.93,0,1.36-.19a6,6,0,0,1,4.44-.22,5.38,5.38,0,0,0,2.47.62,2.81,2.81,0,0,0,2-2.15c.29-1,.3-2.05.62-3,.76-2.32,3-3.75,4.47-5.72,2.76-3.83,1.88-9.46-1.08-13.13-1.1-1.36-2.47-2.58-3-4.26-.73-2.5.66-5.6-1-7.6s-5.44-1.14-7.58-2.87c-1.28-1-1.85-2.92-3.39-3.49-2.46-.9-4.58,2.26-7.18,2.53s-5.09-2.58-7.67-1.85c-1.6.46-2.62,2.19-4.24,2.59-1.42.35-2.92-.42-4.36-.18-1.93.31-3.12,2.25-3.9,4a39.64,39.64,0,0,0-3.26,15.13c0,.79.22,1.82,1,1.87a1.31,1.31,0,0,0,.93-.41c1.15-1.07,1.38-2.76,1.73-4.29s1.06-3.22,2.56-3.67c.63-.19,1.32-.12,2-.29,2.13-.55,3.4-3.35,5.8-2.42S295.61,160.27,297.37,161.83Z" transform="translate(-51 -32)"/><path class="cls-10" d="M305,168.9s2.77-5.93,8.39-4.65,3.3,10.85-4.92,14.84S305,168.9,305,168.9Z" transform="translate(-51 -32)"/><path class="cls-10" d="M240.09,296.83c-2,.17-4.21.48-5.62,1.93a7.33,7.33,0,0,0-1.69,3.9,11.92,11.92,0,0,0,.32,6.22,6.59,6.59,0,0,0,4.38,4.19,10.5,10.5,0,0,0,3.45.06L253.45,312c2.64-.24,5.62-.66,7.17-2.81,2.86-4-.81-10.05-4.67-12C251.65,295.1,244.63,296.44,240.09,296.83Z" transform="translate(-51 -32)"/><path class="cls-23" d="M202.87,312.88a24.36,24.36,0,0,1,15.28-11.21c2.11-.47,4.39-.62,6.12-1.9a16.11,16.11,0,0,0,2.61-2.85,14.22,14.22,0,0,1,9.82-5.31c3.31-.18,8.18,1.55,9.29,5a17.77,17.77,0,0,0-9.25,2.14c-2,3-.72,7.45,1.24,10.43.5.76,1.82,2.62,1.86,3.54.1,1.75-2.44,1.85-4,2.65l-10.33,5.24c-4.77,2.42-9.71,4.9-15.06,5.18a11.07,11.07,0,0,1-6.14-1.19,6.36,6.36,0,0,1-3.18-4.43C200.76,319.31,201.12,315.79,202.87,312.88Z" transform="translate(-51 -32)"/><path class="cls-16" d="M202.87,312.88a24.36,24.36,0,0,1,15.28-11.21c2.11-.47,4.39-.62,6.12-1.9a16.11,16.11,0,0,0,2.61-2.85,14.22,14.22,0,0,1,9.82-5.31,11.41,11.41,0,0,1,7.51,2.45,17.34,17.34,0,0,1-8.59,3.1c-2,.14-4.15,0-5.87,1-1.33.8-2.17,2.21-3.31,3.26-4.33,4-12.26,2.58-15.79,7.31a3.73,3.73,0,0,0-.8,1.86c-.13,1.59,1.18,2.86,2.22,4.07a16.59,16.59,0,0,1,4,10.11,22.91,22.91,0,0,1-5.58,1,11.07,11.07,0,0,1-6.14-1.19,6.36,6.36,0,0,1-3.18-4.43C200.76,319.31,201.12,315.79,202.87,312.88Z" transform="translate(-51 -32)"/><path class="cls-25" d="M225.43,313.74a.87.87,0,1,0,1-.65A.87.87,0,0,0,225.43,313.74Z" transform="translate(-51 -32)"/><path class="cls-25" d="M229.61,311.84a.87.87,0,1,0,1-.65A.87.87,0,0,0,229.61,311.84Z" transform="translate(-51 -32)"/><path class="cls-25" d="M234.06,308.87a.87.87,0,1,0,.65,1.05A.87.87,0,0,0,234.06,308.87Z" transform="translate(-51 -32)"/><path class="cls-25" d="M223.63,309a.87.87,0,1,0,1.05-.65A.87.87,0,0,0,223.63,309Z" transform="translate(-51 -32)"/><path class="cls-25" d="M227.81,307.05a.87.87,0,1,0,1.05-.65A.87.87,0,0,0,227.81,307.05Z" transform="translate(-51 -32)"/><path class="cls-25" d="M232.26,304.08a.87.87,0,1,0,.65,1.05A.87.87,0,0,0,232.26,304.08Z" transform="translate(-51 -32)"/><path class="cls-23" d="M303.77,393.85a9.37,9.37,0,0,1-.5,4c-.86,2.05-2.91,3.32-4.92,4.25s-4.19,1.69-5.8,3.22c-1.42,1.35-2.27,3.18-3.51,4.69a17.62,17.62,0,0,1-4.39,3.67c-6.56,4.12-22.33,5-24.09,1-2.51-5.76,2.82-7.68,6.82-11.59s8.86-6.86,12.9-10.72a7.3,7.3,0,0,0,1.85-2.4c.86-2.12-.21-4.5-1.29-6.52a4.81,4.81,0,0,1-.65-1.72,3.74,3.74,0,0,1,1.65-3.07c3.47-2.79,8.69-2.51,12.6-.39s6.77,5.77,9.26,9.46" transform="translate(-51 -32)"/><path class="cls-16" d="M265.6,404.65a23.68,23.68,0,0,1,7.8,8.45c5.9-2.34,12.1-4.91,15.92-10,1.5-2,2.56-4.26,3.93-6.33a11.32,11.32,0,0,1,5.52-4.79,8.74,8.74,0,0,1,4.89-.06c0,.63.09,1.27.11,1.9a9.37,9.37,0,0,1-.5,4c-.86,2.05-2.91,3.32-4.92,4.25s-4.19,1.69-5.8,3.22c-1.42,1.35-2.27,3.18-3.51,4.69a17.62,17.62,0,0,1-4.39,3.67c-6.56,4.12-22.33,5-24.09,1C258.41,409.72,262,407.61,265.6,404.65Z" transform="translate(-51 -32)"/><path class="cls-25" d="M275.4,401.45a.88.88,0,1,0,.88-.87A.87.87,0,0,0,275.4,401.45Z" transform="translate(-51 -32)"/><path class="cls-25" d="M279.51,399a.87.87,0,1,0,.87-.87A.87.87,0,0,0,279.51,399Z" transform="translate(-51 -32)"/><path class="cls-25" d="M282.69,394.73a.87.87,0,1,0,.87.87A.87.87,0,0,0,282.69,394.73Z" transform="translate(-51 -32)"/><path class="cls-25" d="M241.46,315.47a18.59,18.59,0,0,0-.89,21c1.69,2.71,3.28,5.15,4.08,6.13C257,357.89,273,371.39,278.43,390.24a4.39,4.39,0,0,0,1,2.07,4,4,0,0,0,1.92.85,24.24,24.24,0,0,0,23-7.55c-4.21-16.2-14.72-29.48-27-40.85-2.54-2.34-5.17-4.66-7-7.6s-2.66-6.69-1.35-9.88c1.1-2.7,3.43-4.47,6.08-5.87,1.53-.82,3.17-1.51,4.73-2.19a92,92,0,0,0,19.33-11.37c2-1.52,4.05-3.37,4.34-5.86.31-2.69-1.7-5.22-4.17-6.34s-5.27-1.14-8-1a102.69,102.69,0,0,0-20.63,3l3.69-1.21c-2.12.62-4.26,1.24-6.39,1.91a105,105,0,0,0-11,3.75l4.25-1.38a47.74,47.74,0,0,0-13.21,7.47,29.65,29.65,0,0,0-2.87,2.74C243.92,312.31,242.65,313.89,241.46,315.47Z" transform="translate(-51 -32)"/><path class="cls-26" d="M263.31,322.52c4.62,1.34,7.14,0,11.82-1.11,1.53-.82,3.17-1.51,4.73-2.19a92,92,0,0,0,19.33-11.37c2-1.52,4.05-3.37,4.34-5.86.31-2.69-1.7-5.22-4.17-6.34s-5.27-1.14-8-1a102.69,102.69,0,0,0-20.63,3l3.69-1.21c-2.12.62-4.26,1.24-6.39,1.91a105,105,0,0,0-11,3.75l4.25-1.38a47.74,47.74,0,0,0-13.21,7.47C247.08,309,252.4,319.34,263.31,322.52Z" transform="translate(-51 -32)"/><path class="cls-10" d="M235.9,269.45c-1.22,2-2.48,4.4-1.75,6.66a5.22,5.22,0,0,0,3.79,3.28,9.35,9.35,0,0,0,5.15-.39,19.86,19.86,0,0,0,9.84-7.79,39.86,39.86,0,0,0,5.15-11.62c.7-2.39,1.26-5,.14-7.27-2.45-4.86-10-3.83-12.64.15C242,257.75,239.18,263.93,235.9,269.45Z" transform="translate(-51 -32)"/><path class="cls-32" d="M242.7,257.14c2,2.19,10.72,4.66,14.38,5.58h0a14.76,14.76,0,0,0,1.62.35,11.12,11.12,0,0,0,1.75-2.5c2.92-5.23,6-15,5.69-11.54-.39,4-1.4,32.19,3.65,34.33a1.42,1.42,0,0,0,.54.12L319,286.94l11.31-12,1.07-1.15c-.2-4.94-.32-10.93.49-14.92.09-.43.16-.89.23-1.37,0-.23.06-.48.07-.72s.06-.5.07-.75,0-.56.05-.86,0-.69,0-1c0-1.42,0-2.89-.05-4.35,0-.4-.05-.81-.07-1.22-.08-1.23-.17-2.43-.29-3.54,0-.18,0-.34-.05-.51s0-.33-.05-.49h0c0-.17,0-.34-.06-.5s0-.33,0-.49c-.05-.48-.11-.94-.17-1.36,0-.12,0-.23,0-.35,0-.35-.08-.67-.13-1s0-.32-.06-.46c-.1-.68-.16-1.1-.18-1.19l3.9,10.42s2-.83,4.61-1.74c4.82-1.69,11.89-3.7,13.33-1.67A54.61,54.61,0,0,0,354.2,240a57.52,57.52,0,0,0-.69-21.68,7.25,7.25,0,0,0-.26-1.14,2.13,2.13,0,0,0-.08-.27c-.28-1.06-.56-2.13-.9-3.18l-3.72-4.1c0,.29.06.58.08.86-4.76-4.05-12-6.33-17.71-8.43a45.73,45.73,0,0,1-5.8-2.44c-.37-.21-.75-.4-1.12-.58a55.85,55.85,0,0,0-8.54-3.51c.12,1.89.49,3.78.65,5.64a14,14,0,0,1-.11,3.93,18.6,18.6,0,0,1-3.54,7.08c-1.87,2.64-3.89,5.26-5.68,8a7.28,7.28,0,0,1-9.58,2.47,7,7,0,0,1-2.82-2.73,77.92,77.92,0,0,1-4.05-7.87,49.15,49.15,0,0,1-3.76-12.69,2.79,2.79,0,0,0-3.75-2.23c-8.6,3.26-20.06,7.85-23.17,10.31-5.15,4.06-15.52,45.43-17.27,48.36C242.14,256.25,242.27,256.68,242.7,257.14Z" transform="translate(-51 -32)"/><path class="cls-33" d="M266.15,249c-.39,4-1.4,32.19,3.65,34.33a57.53,57.53,0,0,0,3-9.29,74.84,74.84,0,0,0,2.49-14.22c.39-7.19-.91-14.36-2.23-21.44-.3-1.67-.75-3.54-2.21-4.38a4,4,0,0,0-2.77-.34c-3.91.76-6.14,4.92-7.15,8.79-1.62,6.16-.83,11.94-.47,18.09C263.38,255.34,266.5,245.58,266.15,249Z" transform="translate(-51 -32)"/><path class="cls-33" d="M321.53,212.18c3.4,9.16,4.17,19,4.77,28.8.56,9.07.65,18.19,1.28,27.25.25,3.46,1.37,5.75,2.75,6.69l1.07-1.15c-.2-4.94-.32-10.93.49-14.92,1.39-6.83-.65-19.58-.74-20.17l3.9,10.42s2-.83,4.61-1.74c.11-.7.22-1.41.34-2.11.46-2.88.92-5.85.3-8.7-.9-4.18-4-7.48-6-11.24-2.81-5.19-3.61-11.2-5.61-16.76s-5.87-11.1-11.65-12.28C316.8,201.82,319.6,207,321.53,212.18Z" transform="translate(-51 -32)"/><path class="cls-10" d="M311.19,203.1a1.37,1.37,0,0,0,2.61.19,3.42,3.42,0,0,1,1.27-1.82,2.23,2.23,0,0,1,1-.26,3.78,3.78,0,0,1,.75,0,5,5,0,0,1,.75.15,7.37,7.37,0,0,1,3.25,1.72,12.16,12.16,0,0,1,3,4.41,27.75,27.75,0,0,1,1.43,5c2,9.52,2.19,19.46,5.45,28.63.34,1,.71,1.89,1.1,2.82h0a110.23,110.23,0,0,0,6.85,12.81c1.58,2.66,3.58,5.6,6.64,6a7.24,7.24,0,0,0,4.84-1.47c4.27-3,6.2-8.56,5.85-13.76a24.66,24.66,0,0,0-1.82-7.5,42.07,42.07,0,0,0-3.71-6.94c-2.82-4.38-6.17-8.4-8.92-12.83-3.37-5.45-6.25-11.24-9.81-16.57a9.26,9.26,0,0,1-.84-1.6c-1.15-2.61-1.86-6-3.8-7.69a28.34,28.34,0,0,0-7.39-4.64,7.7,7.7,0,0,0-4.66-.14,6.05,6.05,0,0,0-3.25,1.89,7.17,7.17,0,0,0-1.17,3.63A24.14,24.14,0,0,0,311.19,203.1Z" transform="translate(-51 -32)"/><path class="cls-34" d="M365,275.13c.06,5.25-2.51,10.22-5.83,14.3s-7.37,7.48-11,11.28c-4.14,4.34-7.76,9.25-12.58,12.82a30.51,30.51,0,0,1-33.07,1.54,15.66,15.66,0,0,1-6.09-6c-3.19-6.25.72-14.13,6.46-18.18s12.85-5.45,19.48-7.74c9.61-3.33,18.36-8.63,26.76-14.28,3.56-2.39,6.83-6.7,10.91-4C363.25,267,365,271.45,365,275.13Z" transform="translate(-51 -32)"/><path class="cls-25" d="M357,262.54c-6.41-1.44-12.87,1.63-18.81,4.43-28.28,13.36-59.26,21-90.14,26,3.31,9.66,2.39,15.67,9.9,22.6,13.2,1.27,31.69.85,42.22-4.28,6.8-3.32,13.1-7.66,20.13-10.5,6.42-2.59,13.3-3.87,19.89-6s13.11-5.43,17.27-11S361.12,268.08,357,262.54Z" transform="translate(-51 -32)"/><polygon class="cls-20" points="163.71 234.72 205.28 247.16 183.05 253.81 172.25 247.66 163.71 234.72"/><polygon class="cls-20" points="161.95 230.32 200.78 242.88 179.24 250.65 161.95 230.32"/><path class="cls-16" d="M264.12,273.64l.45,4s-15.77.6-22,2.83a40.46,40.46,0,0,0-10.41,5.5l-4.61-1.93L225,281.37s-1-7.58-6.1-8S210,262,210,262h3.57a27.93,27.93,0,0,0,4.46,5.8c2.23,1.93,6.54,3.12,8.62,7a38.37,38.37,0,0,0,3.57,5.65l2.53,1a23.33,23.33,0,0,1,12-5.8C252.52,274.38,264.12,273.64,264.12,273.64Z" transform="translate(-51 -32)"/><polygon class="cls-17" points="157.2 229.29 154.97 229.59 176.09 253.53 178.62 253.24 157.2 229.29"/><polygon class="cls-17" points="214.07 242.2 181.15 253.98 198.1 261.12 246.58 251.3 214.07 242.2"/><path class="cls-10" d="M225.51,283.76c-.79-.87.08-2.66,1.13-2.74s2,.85,2.75,1.72l4,4.44a3.48,3.48,0,0,0,1.31,1.05,2.81,2.81,0,0,0,1.57-.09,95.82,95.82,0,0,1,12.52-2.25c2.28-.25,4.7-.38,6.71,1a7.56,7.56,0,0,1-3.17,4.64,13.61,13.61,0,0,1-4.77,1.85,61.87,61.87,0,0,1-12.82,1.6,6.82,6.82,0,0,1-3.56-.62,8.51,8.51,0,0,1-2.89-3.44Z" transform="translate(-51 -32)"/><path class="cls-1" d="M369,434.64c0,7.48-33.35,13.54-74.5,13.54S220,442.12,220,434.64s33.35-13.55,74.5-13.55S369,427.16,369,434.64Z" transform="translate(-51 -32)"/><path class="cls-1" d="M584,272c0,11.06-41.64,20-93,20s-93-9-93-20,41.64-20,93-20S584,260.92,584,272Z" transform="translate(-51 -32)"/><path class="cls-17" d="M508.76,112c-2.91-8.43-5.36-17.89-4.95-26.08h0c.21-3.37.25-6.34.42-8.19.9-9.76-6.21-13.59-8.77-13.83s-4.84-2-13.35-1.76c-8.15.28-13.74,6.09-15.29,14.13-1.24,6.49-.46,10.36.75,16,.07,1.66.13,8.24-2.57,12.85-3.11,5.32-7.35,6.26-7.53,18.94s51.29,4.35,51.29,4.35A26.9,26.9,0,0,0,508.76,112Z" transform="translate(-51 -32)"/><path class="cls-35" d="M459.43,268.85a5.58,5.58,0,0,0-1,2.38,16.29,16.29,0,0,0,.16,7.91,1.5,1.5,0,0,0,.44.83,1.54,1.54,0,0,0,.9.26,28.61,28.61,0,0,0,9.83-1,1.41,1.41,0,0,0,.76-.38,1.55,1.55,0,0,0,.26-.95c.1-2.12.21-4.24.31-6.36a5.3,5.3,0,0,0-.09-1.64C470,266.21,461.46,266.4,459.43,268.85Z" transform="translate(-51 -32)"/><path class="cls-36" d="M454.3,282.08c-2.48,1.79-6.43,3.62-9.34,2.65a2.44,2.44,0,0,1-1.49-1.12,3.16,3.16,0,0,1-.24-1.36A38.61,38.61,0,0,1,445.06,270c.75-2.33,2.05-4.88,4.44-5.44a11.63,11.63,0,0,1,7.78,1.27c3.67,2.26,12.86.71,13.3.94,1,.54,1.33,6.19.9,7.28-1.18,3-4.84,4.17-7.74,4.53A18.63,18.63,0,0,0,454.3,282.08Z" transform="translate(-51 -32)"/><path class="cls-7" d="M451,264.36a9,9,0,0,0-1.52.19c-2.39.56-3.69,3.11-4.44,5.44a38.61,38.61,0,0,0-1.83,12.26,3.16,3.16,0,0,0,.24,1.36,2.44,2.44,0,0,0,1.49,1.12c1.79.6,4,.13,6-.73a32,32,0,0,0,1.86-7.58A23.22,23.22,0,0,0,451,264.36Z" transform="translate(-51 -32)"/><path class="cls-25" d="M472.65,118.77c11.13-.28,22.33-.56,33.34,1.11,3.71.57,7.5,1.4,10.57,3.56,5.75,4,7.6,11.62,8.63,18.57.73,4.86,1.26,9.75,1.79,14.64a22.45,22.45,0,0,1,0,7.27c-.69,3.08-2.65,5.71-4.66,8.15-6.25,7.6-13.67,14.51-22.63,18.59s-19.67,5.07-28.65,1a54.27,54.27,0,0,1-8.81-5.34c-3.45-2.41-7-4.93-9.29-8.42a28.79,28.79,0,0,1-3.47-8.19c-2.84-9.83-3.83-20.39-1.84-30.48,1.22-6.23.34-12.55,6.43-15.73A48.11,48.11,0,0,1,472.65,118.77Z" transform="translate(-51 -32)"/><path class="cls-10" d="M478.59,108.22,476.91,124s9.2,4.48,17.69,0l-1.68-19.12Z" transform="translate(-51 -32)"/><path class="cls-37" d="M478.59,108.22l-.4,4.58c1.81.87,4.22,1.57,6.14.23,2.54-1.78,5.26-3.38,9-2.28l-.43-5.89Z" transform="translate(-51 -32)"/><path class="cls-10" d="M485.5,110.21h0a14,14,0,0,1-13.95-14V81.93A14,14,0,0,1,485.5,68h0a14,14,0,0,1,14,14V96.25A14,14,0,0,1,485.5,110.21Z" transform="translate(-51 -32)"/><path class="cls-10" d="M474.12,89.09s-4.41-4.59-9.18-1.65.37,11,9.18,12.12S474.12,89.09,474.12,89.09Z" transform="translate(-51 -32)"/><path class="cls-10" d="M497.39,89.09s4.4-4.59,9.18-1.65-.37,11-9.18,12.12S497.39,89.09,497.39,89.09Z" transform="translate(-51 -32)"/><path class="cls-17" d="M470.58,80c.1,0,9.69.66,15.66-4.11a3.18,3.18,0,0,1,4.67.88c2.17,3.51,5.76,8.12,9.36,7.31,5.7-1.28-3.26-21.66-19.1-17.23S470.58,80,470.58,80Z" transform="translate(-51 -32)"/><path class="cls-25" d="M530.94,133.29c-3.44-5.59-11.1-9.16-18.59-11.41a2.54,2.54,0,0,1,.81,2L510.84,160c4.4,7.48,8.69,15.72,8.07,19.08s-5.83,11.48-10.46,18.2c-3.84,5.6-7.27,10.2-7.27,10.2a26.77,26.77,0,0,1,8.31,10.81s4-2.15,9.37-5.59c6.1-3.9,14-9.45,19.77-15.39C549.55,186.16,538.76,146,530.94,133.29Z" transform="translate(-51 -32)"/><path class="cls-25" d="M467.36,208.24h0l-7-6.7,0,0-1.9-1.82v0l-3.71-3.59c-3.4-3.31-6.49-6.32-8.66-8.49,0,0-1.29-2.41,1.14-6.79a59.4,59.4,0,0,1,7.78-10.8c1-23.3-2-40.59-1.24-46.44-8.6,4.17-10.57,7.28-12.39,9.64-2.08,2.7-24.9,47.6-17.17,60.8,4.43,7.56,9.71,15,18.54,21.63,6.6,4.92,15.19,4.77,26.91,8.32,0,0,2.35-9.24,8.44-10C478.19,214,473.4,214,467.36,208.24Z" transform="translate(-51 -32)"/><path class="cls-26" d="M424.49,174.48c-2,8.14-2.63,15.45-.19,19.61a84.35,84.35,0,0,0,8,11.64C442.06,193.77,429.39,179.31,424.49,174.48Z" transform="translate(-51 -32)"/><path class="cls-26" d="M542.7,172c-5.47,3.48-14.77,12.32-9.83,30.62a73.15,73.15,0,0,0,5.76-5.26C543.24,192.62,544,182.75,542.7,172Z" transform="translate(-51 -32)"/><path class="cls-26" d="M521.6,172.81c-.16-4.76-4.52-6.48-5.65-12.8a13,13,0,0,0-4.6-7.87l-.51,7.87c4.4,7.48,8.69,15.72,8.07,19.08C518.91,179.09,521.76,177.57,521.6,172.81Z" transform="translate(-51 -32)"/><path class="cls-26" d="M447.32,180.89a59.4,59.4,0,0,1,7.78-10.8c.25-5.62.26-10.89.15-15.73a32,32,0,0,0-6.11,12.4c-2.75,10.65-6.94,11.13-6.3,14.36.51,2.56.53,3.91,3.09,5.72C445.73,185.79,445.72,183.77,447.32,180.89Z" transform="translate(-51 -32)"/><path class="cls-26" d="M474.32,121.56a1.53,1.53,0,0,0-.08.87,1.41,1.41,0,0,0,.63.67c5.19,3.41,11.85,3.28,18.05,3a3,3,0,0,0,2.55-1,2.93,2.93,0,0,0,.31-1.47l.33-8.74a3.1,3.1,0,0,0-.29-1.79,2.28,2.28,0,0,0-2.89-.47,19,19,0,0,0-2.54,1.94,4.28,4.28,0,0,1-4.7.48c-.85-.55-1.38-1.5-2.23-2.06-1.36-.89-2.79-.44-4.28-.55-1-.09-2.41-1.05-3.15-.64C474.53,112.71,474.82,119.87,474.32,121.56Z" transform="translate(-51 -32)"/><path class="cls-25" d="M436.48,143.43" transform="translate(-51 -32)"/><path class="cls-16" d="M530.41,168.85l-9.89-9.15s-23.23-.25-36.58,10.38a33,33,0,0,0-22.35-8.76H447.67l-8.55,5.94.45,7.87,87.74,7.07Z" transform="translate(-51 -32)"/><path class="cls-38" d="M439.12,167.26l.45,7.87h36.06l-1.53-2.22S477.06,168.26,439.12,167.26Z" transform="translate(-51 -32)"/><polygon class="cls-39" points="429.8 186.55 428.96 186.52 386.97 184.98 386.08 172.94 385.05 158.83 383.46 137.35 388.24 137.51 420.15 138.57 420.16 138.57 426.97 138.8 427.41 146.25 429.8 186.55"/><polygon class="cls-39" points="483.07 183.53 440.81 189.46 439.47 147.22 439.33 142.75 479.41 136.86 481.34 136.57 481.85 150.2 482.35 164.02 483.07 183.53"/><path class="cls-40" d="M478,170.8a16.88,16.88,0,0,0,12.36,3.95l1.48,46.71c-8.69.89-11.85-2.91-11.85-2.91Z" transform="translate(-51 -32)"/><path class="cls-10" d="M534.75,200.38a3.76,3.76,0,0,1-1.47,3.17,7.66,7.66,0,0,0-1.41,1.43c-2.94,3.83-11.45-3.95-14.62-6.5s1.37-7.14,5.33-9.31a12.58,12.58,0,0,1,1.43-.66,7.77,7.77,0,0,1,4.92-.2c.93.22,1.88.52,2.94.73l.22,0a2.81,2.81,0,0,1,2.35,2.67Z" transform="translate(-51 -32)"/><path class="cls-10" d="M454.27,208.3c-3.16,2.56-11.68,10.34-14.63,6.51a6.9,6.9,0,0,0-2-1.82,3.71,3.71,0,0,1-1.76-2.91c-.19-2.23-.47-5.68-.65-8.43a2.55,2.55,0,0,1,2.83-2.69,5.15,5.15,0,0,0,1.58-.09c3.18-.64,5.35-2.05,9.3.12S457.42,205.73,454.27,208.3Z" transform="translate(-51 -32)"/><path class="cls-41" d="M567.06,230.35a16.36,16.36,0,0,0-3.6-6c-3.84-3.73-9.86-3.8-15.2-3.35a193.38,193.38,0,0,0-21,3.08,26.64,26.64,0,0,1-7.84.79c-1.66-.17-2-7.21-2-7.21l-67.22,3.26s.54,2.33,0,2.77c-4.24,3.49-10.78-2-16.19-2.93a40.14,40.14,0,0,0-11.4-.73c-3.79.47-7.59,2.12-9.86,5.19s-2.95,8.48-2.26,12.23c1.8,9.72,13.46,19,22.71,22.48,67.38,25.26,90.43-14.33,106.48-15.35,7.93-.51,16.14-.83,23.25-4.36,2.2-1.1,4.44-2.74,4.92-5.15A8.62,8.62,0,0,0,567.06,230.35Z" transform="translate(-51 -32)"/><path class="cls-42" d="M453.74,225.13l.89-.19" transform="translate(-51 -32)"/><path class="cls-43" d="M456.46,224.6c13.44-2.19,27.45,1.72,41.07.07,5.73-.69,11.7-2.34,17.19-.93" transform="translate(-51 -32)"/><path class="cls-42" d="M515.61,224c.29.09.57.19.86.31" transform="translate(-51 -32)"/><path class="cls-44" d="M485.61,225.42a215.58,215.58,0,0,1,.12,21.87" transform="translate(-51 -32)"/><path class="cls-2" d="M563.47,224.54c-6.25-5.8-20.61-.59-28.33,3-7.28,3.42-14.3,7.36-21.31,11.3L464.3,263.71s2.12,16.59,5.29,18.35,86.47-27.17,86.47-27.17S583.11,242.74,563.47,224.54Z" transform="translate(-51 -32)"/><path class="cls-44" d="M470.39,280.12c29.54-9.29,57.19-18,86-29.29a34.44,34.44,0,0,0,8.12-4.05,12,12,0,0,0,5-7.36" transform="translate(-51 -32)"/><path class="cls-45" d="M496.41,237.42q7.21,6.3,14.42,12.61a21.75,21.75,0,0,0,6.34,4.32,16.68,16.68,0,0,0,6.52.8c6.89-.3,13.53-2.63,20.37-3.56s14.49-.19,19.44,4.62" transform="translate(-51 -32)"/><path class="cls-46" d="M544.06,251.32c-6.84.93-13.48,3.25-20.37,3.56a16.68,16.68,0,0,1-6.52-.8,21.59,21.59,0,0,1-6.34-4.33l-7-6.13L464.3,263.44s2.12,16.59,5.29,18.35,86.47-27.17,86.47-27.17a34.5,34.5,0,0,0,3.07-1.66C554.6,250.86,549.11,250.62,544.06,251.32Z" transform="translate(-51 -32)"/><path class="cls-10" d="M516.65,262.83a7.78,7.78,0,0,0-2.63-.4c-2.79.1-5.21,2.06-6.77,4.37a11.79,11.79,0,0,0-2.14,7.56c.63,6.5,6.53,7.45,12.24,7.44a29.6,29.6,0,0,0,1.51-7.39A22.74,22.74,0,0,0,516.65,262.83Z" transform="translate(-51 -32)"/><path class="cls-36" d="M555.62,273.71c-1.81-3.58-5.48-6-9.36-7a32.69,32.69,0,0,0-12-.46c-3.55.39-7.23,1-10.62-.16-2.43-.81-4.64-2.48-7-3.26a22.74,22.74,0,0,1,2.21,11.58,29.6,29.6,0,0,1-1.51,7.39c2.44,0,4.85-.17,6.8-.16,8.31.07,16.51,3.27,24.75,2.22,2.91-.37,6.08-1.56,7.23-4.25A7.13,7.13,0,0,0,555.62,273.71Z" transform="translate(-51 -32)"/><path class="cls-7" d="M555.62,273.71c-1.81-3.58-5.48-6-9.36-7a28.08,28.08,0,0,0-9.1-.7,25.89,25.89,0,0,0,2.61,17.64,35.81,35.81,0,0,0,9.13.21c2.91-.37,6.08-1.56,7.23-4.25A7.13,7.13,0,0,0,555.62,273.71Z" transform="translate(-51 -32)"/><path class="cls-2" d="M416.9,223.21c6.25-5.8,20.61-.59,28.32,3,7.29,3.42,14.31,7.36,21.32,11.3l47,23.33s-2.57,17.77-5.75,19.54-83.51-26.85-83.51-26.85S397.26,241.41,416.9,223.21Z" transform="translate(-51 -32)"/><path class="cls-44" d="M410.07,233.67c2.68,5.14,5.44,10.41,9.78,14.25,5,4.45,11.65,6.56,18.06,8.55L462.24,264l44.06,14.13" transform="translate(-51 -32)"/></svg>