<?xml version="1.0" encoding="utf-8"?>
<!-- Generator: Adobe Illustrator 23.0.6, SVG Export Plug-In . SVG Version: 6.00 Build 0)  -->
<svg version="1.1" id="Warstwa_1" xmlns="http://www.w3.org/2000/svg" xmlns:xlink="http://www.w3.org/1999/xlink" x="0px" y="0px"
	 viewBox="0 0 192.4 98.4" style="enable-background:new 0 0 192.4 98.4;" xml:space="preserve">
<style type="text/css">
	.st0{fill:url(#SVGID_1_);}
	.st1{fill:#28D0B9;}
	.st2{fill:none;}
	.st3{font-family:'GillSans-LightItalic';}
	.st4{font-size:14px;}
</style>
<title>main-page-text-bck-cyan-21</title>
<linearGradient id="SVGID_1_" gradientUnits="userSpaceOnUse" x1="96.2302" y1="1.6409" x2="96.2302" y2="100.0172" gradientTransform="matrix(1 0 0 -1 1.000000e-02 100.01)">
	<stop  offset="0" style="stop-color:#B9F7FF"/>
	<stop  offset="1" style="stop-color:#67EDFF"/>
</linearGradient>
<path class="st0" d="M0,8.3c19.1,5.6,39,8.1,58.9,7.3c9.1-0.4,15.5-1.4,28.1-3.4c47.9-7.6,79.7-19.3,87-6.6
	c3.8,7.3,7.1,14.9,9.7,22.8c0.2,0.6,0.5,1.4,0.8,2.3c2.8,8.8,4.1,16.7,6.1,30.9c2.1,14.9,2.3,17.3,1.3,21c-1,3.9-2.9,7.5-5.7,10.5
	c-3,3-7,4.9-11.2,5.2c-9.7,1.1-42.4-6.4-60.3-9c-6-0.9-11-1.3-16.8-1.8c-14.4-1.3-26-1.5-30.1-1.6C41,85.7,7.9,94.5,0.3,96.5L0,8.3z
	"/>
<path class="st1" d="M59.6,93.5"/>
<rect x="16.3" y="37.6" class="st2" width="166.4" height="31.7"/>
<text transform="matrix(1 0 0 1 16.4477 47.1612)"><tspan x="0" y="0" class="st3 st4">Dziel się oraz wymieniaj wiedzą </tspan><tspan x="61.4" y="16.8" class="st3 st4">z innymi</tspan></text>
</svg>
