<?xml version="1.0" encoding="utf-8"?>
<!-- Generator: Adobe Illustrator 23.0.6, SVG Export Plug-In . SVG Version: 6.00 Build 0)  -->
<svg version="1.1" id="Warstwa_1" xmlns="http://www.w3.org/2000/svg" xmlns:xlink="http://www.w3.org/1999/xlink" x="0px" y="0px"
	 viewBox="0 0 192.4 98.3" style="enable-background:new 0 0 192.4 98.3;" xml:space="preserve">
<style type="text/css">
	.st0{fill:url(#SVGID_1_);}
	.st1{fill:#28D0B9;}
	.st2{fill:none;}
	.st3{font-family:'GillSans-LightItalic';}
	.st4{font-size:14px;}
	.st5{font-size:12px;}
</style>
<title>main-page-text-bck-cyan-2</title>
<linearGradient id="SVGID_1_" gradientUnits="userSpaceOnUse" x1="95.3483" y1="4.3244" x2="95.3483" y2="98.1008" gradientTransform="matrix(1 0 0 -1 0 100)">
	<stop  offset="0" style="stop-color:#89FFF0"/>
	<stop  offset="0.3766" style="stop-color:#68F3E0"/>
	<stop  offset="1" style="stop-color:#2ADBC3"/>
</linearGradient>
<path class="st0" d="M0,9.8c18.9,5.3,38.6,7.7,58.4,7c9-0.4,15.4-1.3,27.8-3.2c47.5-7.2,79-18.4,86.2-6.3c3.8,7,7,14.2,9.6,21.7
	c0.2,0.6,0.5,1.3,0.8,2.2c2.8,8.4,4.1,15.9,6,29.4c2.1,14.2,2.3,16.5,1.3,20c-1,3.7-2.9,7.1-5.6,10c-3,2.9-6.9,4.7-11.1,5
	c-9.6,1-42-6.1-59.7-8.6c-5.9-0.9-10.9-1.2-16.6-1.7c-14.3-1.2-25.8-1.4-29.8-1.5C40.6,83.6,7.8,92,0.3,93.9L0,9.8z"/>
<path class="st1" d="M59.6,93.5"/>
<rect x="2.7" y="36.3" class="st2" width="192" height="29.5"/>
<text transform="matrix(1 0 0 1 21.7938 45.8047)"><tspan x="0" y="0" class="st3 st4">Poznawaj osoby z podobnymi</tspan><tspan x="26.9" y="16.8" class="st3 st5"> </tspan><tspan x="30.2" y="16.8" class="st3 st4">zainteresowaniami</tspan></text>
</svg>
