<?xml version="1.0"?>
<svg xmlns="http://www.w3.org/2000/svg" xmlns:xlink="http://www.w3.org/1999/xlink" version="1.1" id="Capa_1" x="0px" y="0px" viewBox="0 0 512.052 512.052" style="enable-background:new 0 0 512.052 512.052;" xml:space="preserve" width="512px" height="512px"><g><g>
	<g>
		<circle style="fill:#5EED7B" cx="153.598" cy="255.998" r="25.6" data-original="#A4C2F7" class="active-path" data-old_color="#A4C2F7"/>
		<circle style="fill:#5EED7B" cx="255.998" cy="255.998" r="25.6" data-original="#A4C2F7" class="active-path" data-old_color="#A4C2F7"/>
		<circle style="fill:#5EED7B" cx="358.398" cy="255.998" r="25.6" data-original="#A4C2F7" class="active-path" data-old_color="#A4C2F7"/>
	</g>
	<g>
		<path style="fill:#E3E7F2;" d="M343.252,232.676c0.112,2.707-0.934,5.333-2.876,7.222c1.441,3.506,0.766,7.527-1.742,10.37    c0.383,1.564,0.399,3.195,0.046,4.766c1.466,1.995,2.117,4.473,1.822,6.931c0.661,1.289,1.003,2.719,0.995,4.168v0.533    c0.008,1.85-0.596,3.651-1.717,5.123c0.383,0.969,0.609,1.992,0.671,3.031c0.833,1.538,1.249,3.268,1.204,5.017    c9.756-3.546,16.378-12.666,16.729-23.041C358.736,246.42,352.746,236.873,343.252,232.676L343.252,232.676z" data-original="#E3E7F2"/>
		<path style="fill:#E3E7F2;" d="M240.852,232.676c0.112,2.707-0.934,5.333-2.876,7.222c1.441,3.506,0.766,7.527-1.742,10.37    c0.383,1.564,0.398,3.195,0.046,4.766c1.466,1.995,2.117,4.473,1.822,6.931c0.661,1.289,1.003,2.719,0.995,4.168v0.533    c0.008,1.85-0.596,3.651-1.717,5.123c0.383,0.969,0.609,1.992,0.671,3.031c0.833,1.538,1.249,3.268,1.204,5.017    c9.756-3.546,16.378-12.666,16.729-23.041C256.336,246.42,250.346,236.873,240.852,232.676L240.852,232.676z" data-original="#E3E7F2"/>
		<path style="fill:#E3E7F2;" d="M138.452,232.676c0.112,2.707-0.934,5.333-2.876,7.222c1.441,3.506,0.766,7.527-1.742,10.37    c0.383,1.564,0.398,3.195,0.046,4.766c1.466,1.995,2.117,4.473,1.822,6.931c0.661,1.289,1.003,2.719,0.995,4.168v0.533    c0.008,1.85-0.596,3.651-1.717,5.123c0.383,0.969,0.609,1.992,0.671,3.031c0.833,1.538,1.249,3.268,1.204,5.017    c9.756-3.546,16.378-12.666,16.729-23.041S147.946,236.873,138.452,232.676L138.452,232.676z" data-original="#E3E7F2"/>
	</g>
	<g>
		<path style="fill:#4DB6AC" d="M153.598,290.132c-18.851,0-34.133-15.282-34.133-34.133s15.282-34.133,34.133-34.133    s34.133,15.282,34.133,34.133C187.713,274.842,172.442,290.113,153.598,290.132L153.598,290.132z M153.598,238.932    c-9.426,0-17.067,7.641-17.067,17.067s7.641,17.067,17.067,17.067s17.067-7.641,17.067-17.067    C170.653,246.578,163.019,238.944,153.598,238.932L153.598,238.932z" data-original="#428DFF" class="" data-old_color="#428DFF"/>
		<path style="fill:#4DB6AC" d="M255.998,290.132c-18.851,0-34.133-15.282-34.133-34.133s15.282-34.133,34.133-34.133    s34.133,15.282,34.133,34.133C290.113,274.842,274.842,290.113,255.998,290.132z M255.998,238.932    c-9.426,0-17.067,7.641-17.067,17.067s7.641,17.067,17.067,17.067c9.426,0,17.067-7.641,17.067-17.067    C273.053,246.578,265.419,238.944,255.998,238.932L255.998,238.932z" data-original="#428DFF" class="" data-old_color="#428DFF"/>
		<path style="fill:#4DB6AC" d="M358.398,290.132c-18.851,0-34.133-15.282-34.133-34.133s15.282-34.133,34.133-34.133    c18.851,0,34.133,15.282,34.133,34.133C392.513,274.842,377.242,290.113,358.398,290.132L358.398,290.132z M358.398,238.932    c-9.426,0-17.067,7.641-17.067,17.067s7.641,17.067,17.067,17.067c9.426,0,17.067-7.641,17.067-17.067    C375.453,246.578,367.819,238.944,358.398,238.932L358.398,238.932z" data-original="#428DFF" class="" data-old_color="#428DFF"/>
		<path style="fill:#4DB6AC" d="M8.532,264.532c-3.451-0.001-6.562-2.08-7.882-5.268s-0.591-6.858,1.849-9.298l119.467-119.467    c3.341-3.281,8.701-3.256,12.012,0.054c3.311,3.311,3.335,8.671,0.054,12.012L14.565,262.031    C12.967,263.634,10.795,264.534,8.532,264.532z" data-original="#428DFF" class="" data-old_color="#428DFF"/>
		<path style="fill:#4DB6AC" d="M127.998,383.998c-2.264,0.003-4.435-0.897-6.033-2.5L2.499,262.031    c-3.281-3.341-3.256-8.701,0.054-12.012s8.671-3.335,12.012-0.054l119.467,119.467c2.44,2.441,3.169,6.11,1.849,9.298    S131.449,383.998,127.998,383.998z" data-original="#428DFF" class="" data-old_color="#428DFF"/>
		<path style="fill:#4DB6AC" d="M383.998,383.998c-3.451-0.001-6.562-2.08-7.882-5.268s-0.591-6.858,1.849-9.298l119.467-119.467    c2.149-2.188,5.307-3.055,8.271-2.27c2.965,0.785,5.28,3.1,6.065,6.065c0.785,2.965-0.082,6.122-2.27,8.271L390.032,381.498    C388.433,383.101,386.262,384.001,383.998,383.998z" data-original="#428DFF" class="" data-old_color="#428DFF"/>
		<path style="fill:#4DB6AC" d="M503.465,264.532c-2.264,0.003-4.435-0.897-6.033-2.5L377.965,142.565    c-3.281-3.341-3.256-8.701,0.054-12.012c3.311-3.311,8.671-3.335,12.012-0.054l119.467,119.467c2.44,2.44,3.169,6.11,1.849,9.298    C510.027,262.452,506.916,264.531,503.465,264.532z" data-original="#428DFF" class="" data-old_color="#428DFF"/>
	</g>
</g></g> </svg>
