<?xml version="1.0" encoding="utf-8"?>
<!-- Generator: Adobe Illustrator 22.1.0, SVG Export Plug-In . SVG Version: 6.00 Build 0)  -->
<svg version="1.1" id="Warstwa_1" xmlns="http://www.w3.org/2000/svg" xmlns:xlink="http://www.w3.org/1999/xlink" x="0px" y="0px"
	 viewBox="0 0 1000 141" style="enable-background:new 0 0 1000 141;" xml:space="preserve">
<style type="text/css">
	.st0{fill:#4AE5A5;}
	.st1{fill:#DEF3EB;}
</style>
<title>wave-bck-header-mobile</title>
<path class="st0" d="M680,237"/>
<path class="st0" d="M646,270"/>
<path class="st0" d="M332,266"/>
<path class="st0" d="M968,231"/>
<path class="st0" d="M718,293"/>
<path class="st1" d="M0,99.7C32.3,84,59.3,78.5,77,76.3c47.7-5.9,60.8,6.9,138,7.9c16.7,0.2,44,0.4,78.4-5.6
	c13.8-2.4,31.7-7.3,66.8-17c61-16.9,82.1-24.7,110.8-17.8c11.2,2.7,23.8,7.7,24.8,8.1c20.6,8.6,31.9,18.6,52.2,26.2
	c11.4,3.5,23.1,6.3,35,8.4c42.8,7.5,80.7,1.9,127-6.9c116-22,107.4-30.4,147-29.7c58.3,1.1,108.4,20,115,22.6
	c9.6,3.7,19,7.9,28,12.5V0H0C0,33.2,0,66.5,0,99.7z"/>
<path class="st1" d="M714,276"/>
</svg>
