<svg id="Warstwa_1" data-name="Warstwa 1" xmlns="http://www.w3.org/2000/svg" viewBox="0 0 1000 141"><defs><style>.cls-1{fill:#4ae5a5;}.cls-2{fill:#def3eb;}</style></defs><title>wave-bck-header-mobile</title><path class="cls-1" d="M680,237"/><path class="cls-1" d="M646,270"/><path class="cls-1" d="M332,266"/><path class="cls-1" d="M968,231"/><path class="cls-1" d="M718,293"/><path class="cls-2" d="M0,141c17.25-14.46,43.43-32.91,77-43.16,57.49-17.56,85,4.74,138,10.07,127.46,12.8,150.87-85.55,256-51.8,38.9,12.49,49.83,31.07,77,44a241.52,241.52,0,0,0,35,10.71c42.85,9.63,80.71,2.47,127-8.79C826,73.78,817.44,63,857,64c58.34,1.47,108.36,25.69,115,29a288.32,288.32,0,0,1,28,16V0H0Z"/><path class="cls-2" d="M714,276"/></svg>