<svg id="Warstwa_1" data-name="Warstwa 1" xmlns="http://www.w3.org/2000/svg" viewBox="0 0 1611.57 438.7"><defs><style>.cls-1{fill:#fff;stroke:#b7b7b7;stroke-miterlimit:10;}</style></defs><title>wavy-lines</title><path class="cls-1" d="M0,464.66c397.32,8.79,604.05,71.86,720,130.16,15.45,7.77,67.36,42.46,144.88,75.93,134.53,58.09,247,74.33,281.62,78.75,80,10.22,140.69,7.48,262,2,79.9-3.61,146-9.87,192-15" transform="translate(10.81 -318.18)"/><path class="cls-1" d="M.2,393.68c397.32,8.79,604.05,71.86,720,130.17,15.45,7.77,67.36,42.46,144.88,75.93,134.53,58.09,247,74.32,281.62,78.75,80,10.21,140.69,7.47,262,2,79.9-3.61,146-9.87,192-15" transform="translate(10.81 -318.18)"/><path class="cls-1" d="M-10.8,318.68c397.32,8.79,604.05,71.86,720,130.17,15.45,7.77,67.36,42.46,144.88,75.93,134.53,58.09,247,74.32,281.62,78.75,80,10.21,140.69,7.47,262,2,79.9-3.61,146-9.87,192-15" transform="translate(10.81 -318.18)"/></svg>