<?xml version="1.0" standalone="no"?>
<!DOCTYPE svg PUBLIC "-//W3C//DTD SVG 20010904//EN"
 "http://www.w3.org/TR/2001/REC-SVG-20010904/DTD/svg10.dtd">
<svg version="1.0" xmlns="http://www.w3.org/2000/svg"
 width="716.000000pt" height="716.000000pt" viewBox="0 0 716.000000 716.000000"
 preserveAspectRatio="xMidYMid meet">
<metadata>
Created by potrace 1.11, written by Peter Selinger 2001-2013
</metadata>
<g transform="translate(0.000000,716.000000) scale(0.100000,-0.100000)"
fill="#000000" stroke="none">
<path d="M165 7135 l-25 -24 0 -3531 0 -3531 24 -24 23 -23 2550 2 c2357 1
2551 3 2566 18 15 15 17 69 17 581 0 556 0 564 -21 583 -19 18 -82 18 -1935
18 l-1914 0 -1 2948 c-1 1621 -2 2953 -3 2959 0 5 -12 19 -26 29 -24 19 -49
20 -628 20 l-603 0 -24 -25z"/>
<path d="M2587 4004 c-1 -1 -33 -4 -72 -8 -212 -19 -309 -122 -309 -326 0
-166 70 -248 264 -307 50 -16 158 -17 1118 -20 l1062 -4 0 75 0 74 -1027 1
c-566 0 -1035 2 -1043 4 -8 2 -31 7 -50 11 -96 20 -142 74 -143 163 -1 105 34
162 109 178 16 4 508 8 1094 9 l1065 2 73 33 c64 30 90 51 63 51 -5 0 -40 14
-78 32 l-68 31 -1028 1 c-566 1 -1029 0 -1030 0z"/>
<path d="M2613 3802 c-13 -2 -23 -6 -24 -10 0 -4 -2 -14 -4 -23 -3 -15 79 -16
968 -17 534 0 974 1 978 4 4 2 5 13 2 23 -6 23 -34 30 -80 20 -18 -4 -33 -4
-33 0 0 7 -287 4 -307 -3 -7 -3 -13 -2 -13 2 0 6 -340 8 -441 2 -19 -1 -38 -1
-44 0 -14 2 -608 2 -620 0 -6 -1 -12 -2 -15 -1 -10 4 -345 6 -367 3z"/>
<path d="M2589 3697 c0 -1 -2 -12 -3 -24 l-3 -23 972 0 c534 0 974 3 977 6 3
3 4 14 1 24 -5 19 -28 19 -974 19 -533 0 -969 -1 -970 -2z"/>
<path d="M2595 3587 c-7 -4 -12 -15 -11 -25 3 -16 58 -17 973 -20 l971 -2 4
25 5 25 -964 2 c-530 2 -970 0 -978 -5z"/>
<path d="M2040 3210 c-86 -5 -103 -10 -180 -47 -78 -39 -83 -43 -60 -51 14 -6
57 -25 95 -43 l70 -32 1230 -1 c1151 -2 1235 -3 1302 -20 58 -14 81 -26 113
-57 22 -21 40 -48 40 -58 0 -11 4 -22 8 -25 5 -3 7 -22 6 -43 -7 -129 -28
-177 -89 -208 -38 -19 -63 -20 -530 -23 -269 -1 -530 -2 -580 -2 -49 1 -157 1
-240 1 -82 -1 -190 -1 -240 0 -49 0 -298 1 -552 2 l-462 2 -3 -84 c-2 -45 -1
-86 2 -90 7 -9 2544 -6 2590 3 52 10 100 26 144 48 42 21 116 90 116 107 0 6
5 11 10 11 6 0 10 9 10 19 0 11 4 22 9 25 5 3 12 20 15 38 3 18 8 44 11 58 13
67 1 178 -26 236 -23 51 -94 134 -114 134 -8 0 -15 3 -17 8 -7 15 -107 53
-188 71 -47 10 -125 19 -174 20 -206 5 -2229 6 -2316 1z"/>
<path d="M2109 2964 c-1 -2 -2 -14 -2 -26 -1 -20 3 -22 56 -22 31 -1 57 2 57
6 0 4 10 4 23 -1 12 -5 32 -5 45 0 14 5 22 5 22 -2 0 -6 7 -6 19 1 13 6 22 7
26 0 3 -6 15 -6 29 0 13 5 27 6 30 3 7 -8 126 -10 126 -2 0 3 17 4 38 1 69 -7
167 -7 190 0 13 5 22 3 22 -3 0 -6 7 -6 19 1 11 5 22 7 24 3 6 -10 172 -8 188
2 8 5 10 4 5 -3 -5 -9 -1 -9 16 -3 13 5 32 6 43 2 11 -4 36 -6 55 -5 59 3 102
4 175 1 39 -1 80 1 93 5 13 5 22 3 22 -3 0 -6 7 -6 19 1 11 5 22 7 24 3 6 -10
172 -8 188 2 8 5 10 4 5 -3 -5 -9 -1 -10 16 -3 13 4 31 6 40 2 21 -7 152 -6
173 3 8 3 15 1 15 -5 0 -6 7 -6 19 1 13 6 22 7 26 0 3 -6 15 -6 29 0 13 5 27
6 30 3 8 -9 126 -9 126 -1 0 4 10 4 23 -1 12 -5 32 -5 45 0 13 5 22 5 22 -2 0
-6 7 -6 19 1 11 5 22 7 24 3 4 -7 36 -8 133 -4 15 1 20 7 19 24 l-2 22 -1156
2 c-636 1 -1157 0 -1158 -3z"/>
<path d="M2360 2842 c0 -4 -57 -7 -127 -7 -126 0 -128 0 -129 -22 l-1 -23 291
0 c1281 -1 2019 1 2026 5 5 3 8 14 7 25 -1 10 -3 17 -5 15 -3 -2 -13 0 -23 6
-11 5 -19 6 -19 2 0 -10 -75 -7 -90 2 -6 3 -10 3 -10 -2 0 -9 -231 -8 -255 1
-8 3 -15 1 -15 -4 0 -6 -9 -6 -25 0 -14 5 -25 6 -25 2 0 -9 -233 -8 -248 2 -6
3 -13 3 -16 -2 -5 -9 -94 -8 -103 2 -3 3 -13 1 -23 -4 -10 -5 -20 -7 -22 -4
-6 5 -35 5 -199 2 -58 -1 -110 2 -116 5 -7 4 -14 4 -16 0 -6 -10 -129 -9 -145
1 -6 3 -13 3 -16 -2 -5 -9 -94 -8 -103 2 -3 3 -13 1 -23 -4 -10 -5 -20 -7 -22
-4 -6 5 -35 5 -199 2 -58 -1 -110 1 -116 5 -5 4 -13 4 -17 0 -8 -9 -141 -7
-155 2 -6 3 -11 2 -11 -4 0 -7 -8 -7 -25 -1 -14 5 -25 6 -25 2z"/>
<path d="M2109 2715 c-8 -1 -3 -45 5 -46 15 -1 2254 -1 2286 0 18 1 26 7 27
21 1 11 -4 21 -10 21 -9 1 -2303 5 -2308 4z"/>
<path d="M2287 2294 c-1 -1 -31 -4 -67 -7 -277 -26 -412 -161 -419 -422 -7
-250 164 -405 484 -442 57 -6 2733 -11 2753 -5 8 3 12 32 12 98 l0 94 -142 0
c-79 0 -690 1 -1358 1 -1268 1 -1284 1 -1386 43 -46 19 -89 61 -105 104 -15
39 -19 133 -7 189 14 65 42 101 97 127 l46 21 1410 2 c776 1 1424 3 1440 6 17
2 72 24 124 49 92 44 97 49 51 63 -8 2 -72 31 -123 55 l-49 23 -1380 1 c-759
1 -1380 0 -1381 0z"/>
<path d="M2310 1995 l0 -25 1296 0 1295 0 -3 23 -3 22 -1292 3 -1293 2 0 -25z"/>
<path d="M2320 1882 c-6 -2 -10 -14 -10 -26 l0 -22 1292 0 c1195 1 1293 2
1296 18 2 9 -3 20 -10 24 -11 7 -2546 13 -2568 6z"/>
<path d="M2310 1714 l0 -24 1282 -2 c923 -2 1285 0 1296 8 8 6 13 18 9 27 -5
14 -135 15 -1296 15 l-1291 0 0 -24z"/>
</g>
</svg>
